<svg width="96" height="20" viewBox="0 0 96 20" fill="none" xmlns="http://www.w3.org/2000/svg">
<g id="SVG Export 2" clip-path="url(#clip0_2051_34896)">
<path id="Vector" d="M18.5146 18.6619V0H22.0706V18.6619H18.5146Z" fill="white"/>
<path id="Vector_2" d="M30.2428 19.0537C26.0854 19.0537 23.2354 15.9739 23.2354 11.9805C23.2354 7.9871 26.0854 4.90723 30.2428 4.90723C34.4002 4.90723 37.2503 7.9871 37.2503 11.9805C37.2503 15.9739 34.4002 19.0537 30.2428 19.0537ZM30.2428 16.3393C32.413 16.3393 33.642 14.5905 33.642 11.9805C33.642 9.37044 32.413 7.59559 30.2428 7.59559C28.0465 7.59559 26.8437 9.37044 26.8437 11.9805C26.8437 14.5905 28.0465 16.3393 30.2428 16.3393Z" fill="white"/>
<path id="Vector_3" d="M44.6033 19.0537C40.3675 19.0537 37.7266 15.9739 37.7266 11.9805C37.7266 7.9871 40.3413 4.90723 44.4203 4.90723C47.8979 4.90723 50.0419 6.91698 50.5126 9.81415H47.035C46.7997 8.63962 45.8845 7.7522 44.5772 7.7522C42.4331 7.7522 41.3349 9.39654 41.3349 11.9805C41.3349 14.5122 42.3547 16.2088 44.5249 16.2088C45.963 16.2088 46.9827 15.4519 47.218 13.938H50.6433C50.408 16.783 48.1855 19.0537 44.6033 19.0537Z" fill="white"/>
<path id="Vector_4" d="M60.5097 18.6619L56.7445 12.5544L55.2018 14.1465V18.6619H51.6719V0H55.2018V10.3358L59.9606 5.27232H64.2226L59.2807 10.3619L64.8239 18.6619H60.5097Z" fill="white"/>
<path id="Vector_5" d="M73.4849 18.6615C73.2757 18.4005 73.145 17.7741 73.0665 17.1738H73.0142C72.3344 18.1917 71.367 18.9747 69.066 18.9747C66.3205 18.9747 64.3857 17.5392 64.3857 14.8769C64.3857 11.9276 66.7912 10.988 69.772 10.5703C71.9945 10.2571 73.0142 10.0744 73.0142 9.05652C73.0142 8.0908 72.256 7.46438 70.7656 7.46438C69.0921 7.46438 68.2816 8.0647 68.177 9.34363H65.0132C65.1178 6.99457 66.8696 4.93262 70.7917 4.93262C74.8184 4.93262 76.4395 6.73356 76.4395 9.86564V16.6779C76.4395 17.6958 76.5964 18.2961 76.9101 18.531V18.6615H73.4849ZM69.9289 16.4952C71.9683 16.4952 73.0927 15.2424 73.0927 13.9373V11.9276C72.4651 12.293 71.4977 12.5018 70.6087 12.7106C68.7522 13.1282 67.8371 13.5458 67.8371 14.7986C67.8371 16.0515 68.6738 16.4952 69.9289 16.4952Z" fill="white"/>
<path id="Vector_6" d="M78.1777 18.6619V5.27232H81.7337V18.6619H78.1777ZM78.1777 3.18427V0H81.7337V3.18427H78.1777Z" fill="white"/>
<path id="Vector_7" d="M88.5216 19.0534C85.1486 19.0534 82.8477 16.3129 82.8477 11.9802C82.8477 7.80408 85.2271 4.90691 88.5739 4.90691C90.4565 4.90691 91.6331 5.76823 92.3652 6.89056H92.4437V0H95.9997V18.6619H92.5744V16.9132H92.5221C91.7377 18.1921 90.4042 19.0534 88.5216 19.0534ZM89.306 16.078C91.424 16.078 92.5221 14.5119 92.5221 12.0585C92.5221 9.50062 91.6854 7.77798 89.4106 7.77798C87.4496 7.77798 86.456 9.50062 86.456 11.9802C86.456 14.5641 87.4757 16.078 89.306 16.078Z" fill="white"/>
<path id="Vector_8" fill-rule="evenodd" clip-rule="evenodd" d="M12.9552 3.04555H0.175949V0.00390625H12.9552C15.3474 0.00390625 17.2867 1.94037 17.2867 4.32912C17.2867 6.71787 15.3474 8.65433 12.9552 8.65433H3.68766C3.33332 8.65433 3.04608 8.94116 3.04608 9.29498C3.04608 9.6488 3.33332 9.93563 3.68766 9.93563H12.9556C15.3476 9.93563 17.2867 11.8719 17.2867 14.2604C17.2867 16.649 15.3476 18.5853 12.9556 18.5853H0.175949V15.5436H12.9556C13.6653 15.5436 14.2407 14.9691 14.2407 14.2604C14.2407 13.5518 13.6653 12.9773 12.9556 12.9773H3.68766C1.65102 12.9773 0 11.3286 0 9.29498C0 7.2613 1.65102 5.61268 3.68766 5.61268H12.9552C13.6651 5.61268 14.2407 5.03801 14.2407 4.32912C14.2407 3.62022 13.6651 3.04555 12.9552 3.04555Z" fill="white"/>
</g>
<defs>
<clipPath id="clip0_2051_34896">
<rect width="96" height="20" fill="white"/>
</clipPath>
</defs>
</svg>
