<svg width="16" height="16" viewBox="0 0 16 16" fill="none" xmlns="http://www.w3.org/2000/svg">
<path fill-rule="evenodd" clip-rule="evenodd" d="M14.8572 3.81152H4.95438C4.32319 3.81152 3.81152 4.32319 3.81152 4.95438V14.8572C3.81152 15.4884 4.32319 16.0001 4.95438 16.0001H14.8572C15.4884 16.0001 16.0001 15.4884 16.0001 14.8572V4.95438C16.0001 4.32319 15.4884 3.81152 14.8572 3.81152Z" fill="#391EDA"/>
<path fill-rule="evenodd" clip-rule="evenodd" d="M12.1886 2.66856V1.52571C12.1886 0.685309 11.509 0.00314757 10.6686 0H1.52573C0.684399 0.00313347 0.00313347 0.684384 0 1.52571V10.6686C0.00314757 11.509 0.685324 12.1886 1.52573 12.1886H2.66858V4.95428C2.66858 3.69192 3.69192 2.66856 4.95428 2.66856H12.1886Z" fill="#391EDA"/>
</svg>
