<svg width="16" height="19" fill="none" xmlns="http://www.w3.org/2000/svg"><path fill-rule="evenodd" clip-rule="evenodd" d="M12.168 8.605l-3.956 3.957c-.006.01-.016.016-.022.02a.932.932 0 01-.52.264c-.016 0-.033.005-.049.005-.032.006-.064.006-.096.006l-.092-.006c-.016 0-.032-.005-.048-.005a.915.915 0 01-.52-.263l-.022-.021-3.956-3.957a.939.939 0 01-.274-.666.939.939 0 011.605-.665l2.378 2.378V.939c0-.515.424-.939.94-.939A.96.96 0 018.2.274a.928.928 0 01.274.665v8.713l2.378-2.378a.946.946 0 011.331 0 .962.962 0 01-.016 1.331zM1 16h14a1 1 0 011 1v.5a1 1 0 01-1 1H1a1 1 0 01-1-1V17a1 1 0 011-1z" fill="#adb3c0"/></svg>