<svg width="14" height="14" viewBox="0 0 14 14" fill="none" xmlns="http://www.w3.org/2000/svg">
<g id="Icon">
<path id="Vector" d="M6.99967 1.45805V12.5414M11.6663 6.99972C11.6663 9.86298 8.5432 11.9455 7.40684 12.6084C7.27769 12.6837 7.21312 12.7214 7.12199 12.741C7.05127 12.7561 6.94808 12.7561 6.87736 12.741C6.78623 12.7214 6.72166 12.6837 6.59251 12.6084C5.45615 11.9455 2.33301 9.86298 2.33301 6.99972V4.20999C2.33301 3.74361 2.33301 3.51042 2.40928 3.30997C2.47667 3.13289 2.58616 2.97488 2.72831 2.84961C2.88921 2.70781 3.10756 2.62593 3.54424 2.46217L6.67196 1.28928C6.79323 1.2438 6.85387 1.22107 6.91625 1.21205C6.97158 1.20406 7.02777 1.20406 7.0831 1.21205C7.14548 1.22107 7.20612 1.2438 7.32739 1.28928L10.4551 2.46217C10.8918 2.62593 11.1101 2.70781 11.271 2.84961C11.4132 2.97488 11.5227 3.13289 11.5901 3.30997C11.6663 3.51042 11.6663 3.74361 11.6663 4.20999V6.99972Z" stroke="#707070" stroke-width="1.25" stroke-linecap="round" stroke-linejoin="round"/>
</g>
</svg>
