<svg width="24" height="24" viewBox="0 0 24 24" fill="none" xmlns="http://www.w3.org/2000/svg">
<path d="M12 0C5.373 0 0 5.373 0 12C0 18.627 5.373 24 12 24C18.627 24 24 18.627 24 12C24 5.373 18.627 0 12 0ZM12.006 19.001C10.199 19.001 8.405 18.304 7.051 16.95C5.719 15.619 5.009 13.839 5.011 12H3L6 9L9 12H7.008C7.007 13.314 7.515 14.585 8.465 15.536C10.166 17.238 12.836 17.487 14.819 16.132L15.948 17.782C14.751 18.601 13.375 19.001 12.006 19.001ZM18 15L15 12H16.992C16.993 10.686 16.485 9.415 15.535 8.464C13.833 6.762 11.164 6.514 9.181 7.868L8.052 6.218C10.827 4.319 14.568 4.67 16.948 7.05C18.28 8.381 18.99 10.161 18.988 12H21L18 15Z" fill="white"/>
</svg>
