<svg width="20" height="20" viewBox="0 0 20 20" fill="none" xmlns="http://www.w3.org/2000/svg">
<g id="Icon" clip-path="url(#clip0_1268_12795)">
<g id="Vector">
<path d="M17.6667 18.3333C17.9 18.3333 18.0167 18.3333 18.1058 18.2879C18.1842 18.248 18.248 18.1842 18.2879 18.1058C18.3333 18.0167 18.3333 17.9 18.3333 17.6667V9C18.3333 8.76664 18.3333 8.64997 18.2879 8.56084C18.248 8.48244 18.1842 8.41869 18.1058 8.37875C18.0167 8.33333 17.9 8.33333 17.6667 8.33333L15.6667 8.33333C15.4333 8.33333 15.3166 8.33333 15.2275 8.37875C15.1491 8.41869 15.0854 8.48243 15.0454 8.56084C15 8.64997 15 8.76664 15 9V11C15 11.2334 15 11.35 14.9546 11.4392C14.9146 11.5176 14.8509 11.5813 14.7725 11.6213C14.6834 11.6667 14.5667 11.6667 14.3333 11.6667H12.3333C12.1 11.6667 11.9833 11.6667 11.8942 11.7121C11.8158 11.752 11.752 11.8158 11.7121 11.8942C11.6667 11.9833 11.6667 12.1 11.6667 12.3333V14.3333C11.6667 14.5667 11.6667 14.6834 11.6212 14.7725C11.5813 14.8509 11.5176 14.9146 11.4392 14.9546C11.35 15 11.2333 15 11 15H8.99999C8.76664 15 8.64996 15 8.56083 15.0454C8.48243 15.0854 8.41868 15.1491 8.37874 15.2275C8.33332 15.3166 8.33332 15.4333 8.33332 15.6667V17.6667C8.33332 17.9 8.33332 18.0167 8.37874 18.1058C8.41868 18.1842 8.48243 18.248 8.56083 18.2879C8.64996 18.3333 8.76664 18.3333 8.99999 18.3333L17.6667 18.3333Z" stroke="#707070" stroke-width="1.5" stroke-linecap="round" stroke-linejoin="round"/>
<path d="M8.33332 5.66666C8.33332 5.43331 8.33332 5.31663 8.37874 5.2275C8.41868 5.1491 8.48243 5.08536 8.56083 5.04541C8.64996 5 8.76664 5 8.99999 5H11C11.2333 5 11.35 5 11.4392 5.04541C11.5176 5.08536 11.5813 5.1491 11.6212 5.2275C11.6667 5.31663 11.6667 5.43331 11.6667 5.66666V7.66666C11.6667 7.90002 11.6667 8.0167 11.6212 8.10583C11.5813 8.18423 11.5176 8.24797 11.4392 8.28792C11.35 8.33333 11.2333 8.33333 11 8.33333H8.99999C8.76664 8.33333 8.64996 8.33333 8.56083 8.28792C8.48243 8.24797 8.41868 8.18423 8.37874 8.10583C8.33332 8.0167 8.33332 7.90002 8.33332 7.66666V5.66666Z" stroke="#707070" stroke-width="1.5" stroke-linecap="round" stroke-linejoin="round"/>
<path d="M2.49999 10.6667C2.49999 10.4333 2.49999 10.3166 2.5454 10.2275C2.58535 10.1491 2.64909 10.0854 2.72749 10.0454C2.81662 10 2.9333 10 3.16666 10H5.16666C5.40001 10 5.51669 10 5.60582 10.0454C5.68422 10.0854 5.74796 10.1491 5.78791 10.2275C5.83332 10.3166 5.83332 10.4333 5.83332 10.6667V12.6667C5.83332 12.9 5.83332 13.0167 5.78791 13.1058C5.74796 13.1842 5.68422 13.248 5.60582 13.2879C5.51669 13.3333 5.40001 13.3333 5.16666 13.3333H3.16666C2.9333 13.3333 2.81662 13.3333 2.72749 13.2879C2.64909 13.248 2.58535 13.1842 2.5454 13.1058C2.49999 13.0167 2.49999 12.9 2.49999 12.6667V10.6667Z" stroke="#707070" stroke-width="1.5" stroke-linecap="round" stroke-linejoin="round"/>
<path d="M1.66666 2.33333C1.66666 2.09998 1.66666 1.9833 1.71207 1.89417C1.75202 1.81577 1.81576 1.75203 1.89416 1.71208C1.98329 1.66666 2.09997 1.66666 2.33332 1.66666H4.33332C4.56668 1.66666 4.68336 1.66666 4.77249 1.71208C4.85089 1.75203 4.91463 1.81577 4.95458 1.89417C4.99999 1.9833 4.99999 2.09998 4.99999 2.33333V4.33333C4.99999 4.56669 4.99999 4.68336 4.95458 4.77249C4.91463 4.85089 4.85089 4.91464 4.77249 4.95458C4.68336 5 4.56668 5 4.33332 5H2.33332C2.09997 5 1.98329 5 1.89416 4.95458C1.81576 4.91464 1.75202 4.85089 1.71207 4.77249C1.66666 4.68336 1.66666 4.56669 1.66666 4.33333V2.33333Z" stroke="#707070" stroke-width="1.5" stroke-linecap="round" stroke-linejoin="round"/>
</g>
</g>
<defs>
<clipPath id="clip0_1268_12795">
<rect width="20" height="20" fill="white"/>
</clipPath>
</defs>
</svg>
