<svg width="24" height="24" viewBox="0 0 24 24" fill="none" xmlns="http://www.w3.org/2000/svg">
<path d="M9.87605 4.98879C9.70165 4.50399 9.52565 4.01519 9.52245 4.00879C9.43845 3.82079 9.24405 3.70239 9.03925 3.72319C8.90965 3.73359 5.84325 3.99759 3.87845 5.57759C2.85125 6.52639 0.800049 12.0736 0.800049 16.8696C0.800049 16.9544 0.821649 17.0368 0.864049 17.1104C2.28085 19.5984 6.14325 20.2496 7.02325 20.2776C7.02885 20.2784 7.03365 20.2784 7.03845 20.2784C7.19365 20.2784 7.33925 20.204 7.43205 20.0784L8.38405 18.7888C6.81125 18.5496 6.52725 18.2376 6.46085 18.1888C6.10565 17.9272 5.84325 17.5608 6.16165 17.0984C6.40645 16.7392 6.92005 16.6208 7.31365 16.8232C7.71685 17.0112 8.79605 17.616 12 17.6C15.1816 17.5904 16.5784 16.924 16.5984 16.9096C17.1328 16.6688 17.5496 16.768 17.8096 17.1248C18.1192 17.6104 17.8984 17.9392 17.5448 18.2C17.4784 18.2488 17.3176 18.3856 15.628 18.7856L16.568 20.0776C16.66 20.204 16.8064 20.2776 16.9616 20.2776C16.9672 20.2776 16.972 20.2776 16.9769 20.2768C17.8576 20.2488 21.72 19.5976 23.136 17.1096C23.1784 17.036 23.2 16.9536 23.2 16.8688C23.2 12.0736 21.1488 6.52639 20.0961 5.55679C18.1568 3.99839 15.0904 3.73439 14.9608 3.72319C14.756 3.70559 14.5616 3.82159 14.4776 4.00879C14.4744 4.01519 14.3032 4.51199 14.1376 4.99119C14.1376 4.99119 12.8328 4.79999 12 4.79999C11.1672 4.79999 9.87605 4.98879 9.87605 4.98879ZM8.80005 15.2C7.91605 15.2 7.20005 14.1336 7.20005 12.8168C7.20005 11.5 7.91605 10.4336 8.80005 10.4336C9.68725 10.3016 10.3808 11.5 10.4 12.8168C10.4 14.1336 9.68405 15.2 8.80005 15.2ZM15.2 15.2C14.316 15.2 13.6 14.1264 13.6 12.8024C13.6 11.4784 14.316 10.4048 15.2 10.4048C16.084 10.4048 16.8 11.4784 16.8 12.8024C16.8 14.1264 16.084 15.2 15.2 15.2Z" fill="#ffffff" />
</svg>
