<svg width="24" height="24" viewBox="0 0 24 24" fill="none" xmlns="http://www.w3.org/2000/svg">
<path d="M12 0C11.4905 0 11.0769 0.413538 11.0769 0.923077V1.08173C11.0769 1.52296 10.7662 1.91662 10.3305 1.98678C10.1191 2.02093 9.90989 2.0605 9.70313 2.10757C9.27482 2.20542 8.84168 1.96292 8.67368 1.55769L8.61238 1.41346C8.41761 0.942692 7.87794 0.71837 7.40625 0.914063C6.93548 1.10883 6.71116 1.6485 6.90685 2.12019L6.96815 2.26803C7.138 2.67418 7.00217 3.155 6.6274 3.38762C6.44648 3.50024 6.26997 3.61822 6.09736 3.74099C5.7392 3.99668 5.24377 3.93848 4.93269 3.6274L4.82091 3.51563C4.45999 3.1547 3.87562 3.1547 3.51563 3.51563C3.15563 3.87655 3.15563 4.46091 3.51563 4.82091L3.6274 4.93269C3.93848 5.24377 3.99668 5.73828 3.74099 6.09736C3.61822 6.26997 3.50024 6.44648 3.38762 6.6274C3.155 7.00217 2.6733 7.13888 2.26623 6.96995L2.12019 6.90865C1.64942 6.71388 1.10795 6.93728 0.91226 7.40805C0.71749 7.87882 0.940889 8.41849 1.41166 8.61418L1.55589 8.67368C1.96112 8.84168 2.20542 9.27482 2.10757 9.70313C2.0605 9.90989 2.01913 10.1191 1.98498 10.3305C1.91575 10.7653 1.52296 11.0769 1.08173 11.0769H0.923077C0.413538 11.0769 0 11.4905 0 12C0 12.5095 0.413538 12.9231 0.923077 12.9231H1.08173C1.52296 12.9231 1.91662 13.2338 1.98678 13.6695C2.02093 13.8809 2.0605 14.0901 2.10757 14.2969C2.20542 14.7252 1.96292 15.1583 1.55769 15.3263L1.41346 15.3876C0.942692 15.5824 0.71837 16.1221 0.914063 16.5938C1.10883 17.0645 1.6485 17.2888 2.12019 17.0931L2.26803 17.0319C2.67511 16.8629 3.15588 16.9988 3.38942 17.3726C3.50204 17.5535 3.6191 17.7309 3.74279 17.9044C3.99848 18.2626 3.94028 18.758 3.62921 19.0691L3.51563 19.1809C3.1547 19.5418 3.1547 20.1262 3.51563 20.4862C3.87655 20.8462 4.46091 20.8471 4.82091 20.4862L4.9345 20.3744C5.24557 20.0633 5.7392 20.0033 6.09736 20.259C6.27089 20.3827 6.44828 20.5016 6.62921 20.6142C7.00305 20.8468 7.14068 21.3285 6.97175 21.7356L6.91046 21.8816C6.71569 22.3524 6.93909 22.8939 7.40986 23.0895C7.88063 23.2843 8.42029 23.0609 8.61599 22.5901L8.67548 22.4459C8.84348 22.0407 9.27662 21.7964 9.70493 21.8942C9.9117 21.9413 10.1209 21.9827 10.3323 22.0168C10.7653 22.0842 11.0769 22.477 11.0769 22.9183V23.0769C11.0769 23.5865 11.4905 24 12 24C12.5095 24 12.9231 23.5865 12.9231 23.0769V22.9183C12.9231 22.477 13.2338 22.0834 13.6695 22.0132C13.8809 21.9791 14.0901 21.9395 14.2969 21.8924C14.7252 21.7946 15.1583 22.0371 15.3263 22.4423L15.3876 22.5865C15.5824 23.0573 16.1221 23.2816 16.5938 23.0859C17.0645 22.8912 17.2888 22.3515 17.0931 21.8798L17.0319 21.732C16.8629 21.3249 16.9988 20.8441 17.3726 20.6106C17.5535 20.498 17.7309 20.3809 17.9044 20.2572C18.2626 20.0015 18.758 20.0597 19.0691 20.3708L19.1809 20.4844C19.5418 20.8453 20.1262 20.8453 20.4862 20.4844C20.8462 20.1235 20.8471 19.5391 20.4862 19.1791L20.3744 19.0655C20.0633 18.7544 20.0033 18.2608 20.259 17.9026C20.3827 17.7291 20.5016 17.5517 20.6142 17.3708C20.8468 16.9969 21.3285 16.8593 21.7356 17.0282L21.8816 17.0895C22.3524 17.2843 22.8939 17.0609 23.0895 16.5901C23.2843 16.1194 23.0609 15.5797 22.5901 15.384L22.4459 15.3245C22.0407 15.1565 21.7964 14.7234 21.8942 14.2951C21.9413 14.0883 21.9827 13.8791 22.0168 13.6677C22.0842 13.2347 22.477 12.9231 22.9183 12.9231H23.0769C23.5865 12.9231 24 12.5095 24 12C24 11.4905 23.5865 11.0769 23.0769 11.0769H22.9183C22.477 11.0769 22.0834 10.7662 22.0132 10.3305C21.9791 10.1191 21.9395 9.90989 21.8924 9.70313C21.7946 9.27482 22.0371 8.84168 22.4423 8.67368L22.5865 8.61238C23.0573 8.41761 23.2816 7.87794 23.0859 7.40625C22.8912 6.93548 22.3515 6.71116 21.8798 6.90685L21.732 6.96815C21.3249 7.13707 20.8441 7.00125 20.6106 6.6274C20.498 6.44648 20.3809 6.26909 20.2572 6.09555C20.0015 5.7374 20.0597 5.24197 20.3708 4.93089L20.4844 4.81911C20.8453 4.45819 20.8453 3.87382 20.4844 3.51382C20.1235 3.1529 19.5391 3.1529 19.1791 3.51382L19.0673 3.6274C18.7562 3.93848 18.2608 3.99848 17.9026 3.74279C17.7291 3.6191 17.5517 3.50024 17.3708 3.38762C16.9969 3.155 16.8611 2.6733 17.03 2.26623L17.0913 2.12019C17.2861 1.64942 17.0627 1.10795 16.5919 0.91226C16.1212 0.71749 15.5815 0.940889 15.3858 1.41166L15.3245 1.55589C15.1565 1.96112 14.7234 2.20542 14.2951 2.10757C14.0883 2.0605 13.8791 2.01913 13.6677 1.98498C13.2338 1.91575 12.9231 1.52296 12.9231 1.08173V0.923077C12.9231 0.413538 12.5095 0 12 0ZM12 4.61538C15.7649 4.61538 18.8664 7.43527 19.3215 11.0769H13.5956C13.4338 10.7968 13.2013 10.564 12.9212 10.402C12.6412 10.24 12.3235 10.1544 12 10.1538C11.9994 10.1538 11.9988 10.1538 11.9982 10.1538L9.13522 5.19231C10.0163 4.82098 10.9839 4.61538 12 4.61538ZM7.54147 6.1226L10.4026 11.0769C10.2401 11.3574 10.1543 11.6758 10.1538 12C10.1549 12.323 10.2407 12.64 10.4026 12.9195L7.53966 17.8756C5.76593 16.5268 4.61538 14.4001 4.61538 12C4.61538 9.59903 5.76659 7.47135 7.54147 6.1226ZM13.5974 12.9231H19.3215C18.8664 16.5647 15.7649 19.3846 12 19.3846C10.9839 19.3846 10.0163 19.179 9.13522 18.8077L11.9982 13.8462C11.9988 13.8462 11.9994 13.8462 12 13.8462C12.3238 13.8459 12.6419 13.7605 12.9222 13.5985C13.2026 13.4364 13.4354 13.2035 13.5974 12.9231V12.9231Z" fill="white"/>
</svg>
