<svg width="11" height="12" viewBox="0 0 11 12" fill="none" xmlns="http://www.w3.org/2000/svg">
<path id="Vector" d="M5.5 7.25018V4.25018M4 5.75018H7M9.5 6.00018C9.5 8.4544 6.82302 10.2394 5.849 10.8076C5.7383 10.8722 5.68295 10.9045 5.60484 10.9212C5.54422 10.9342 5.45578 10.9342 5.39516 10.9212C5.31705 10.9045 5.2617 10.8722 5.15101 10.8076C4.17698 10.2394 1.5 8.4544 1.5 6.00018V3.60898C1.5 3.20922 1.5 3.00935 1.56538 2.83753C1.62314 2.68575 1.71699 2.55032 1.83883 2.44294C1.97675 2.3214 2.1639 2.25122 2.5382 2.11085L5.2191 1.10552C5.32305 1.06654 5.37502 1.04705 5.42849 1.03932C5.47592 1.03247 5.52408 1.03247 5.57151 1.03932C5.62498 1.04705 5.67695 1.06654 5.7809 1.10552L8.4618 2.11085C8.8361 2.25122 9.02325 2.3214 9.16117 2.44294C9.28301 2.55032 9.37686 2.68575 9.43462 2.83753C9.5 3.00935 9.5 3.20922 9.5 3.60898V6.00018Z" stroke="#707070" stroke-width="1.5" stroke-linecap="round" stroke-linejoin="round"/>
</svg>
