<svg width="16" height="16" viewBox="0 0 16 16" fill="none" xmlns="http://www.w3.org/2000/svg">
<path d="M7.99994 6.37116V8.58077M7.99994 10.7904H8.00568M7.018 3.53182L2.15392 11.3428C2.05363 11.5099 2.00057 11.6993 2 11.8922C1.99944 12.0851 2.0514 12.2748 2.15071 12.4424C2.25003 12.61 2.39323 12.7496 2.56607 12.8475C2.73892 12.9453 2.93538 12.9979 3.13592 13H12.8641C13.0646 12.9979 13.2611 12.9453 13.4339 12.8475C13.6068 12.7496 13.75 12.61 13.8493 12.4424C13.9486 12.2748 14.0006 12.0851 14 11.8922C13.9994 11.6993 13.9464 11.5099 13.8461 11.3428L8.982 3.53182C8.87963 3.36947 8.73548 3.23525 8.56347 3.14209C8.39146 3.04894 8.1974 3 8 3C7.8026 3 7.60854 3.04894 7.43653 3.14209C7.26452 3.23525 7.12037 3.36947 7.018 3.53182Z" stroke="#F2555A" stroke-width="1.5" stroke-linecap="round" stroke-linejoin="round"/>
</svg>
