<svg width="20" height="20" viewBox="0 0 20 20" fill="none" xmlns="http://www.w3.org/2000/svg">
<path d="M15.8333 7.49984C15.8333 10.7215 13.2217 13.3332 10 13.3332M15.8333 7.49984C15.8333 4.27818 13.2217 1.6665 10 1.6665M15.8333 7.49984H4.16667M10 13.3332C6.77834 13.3332 4.16667 10.7215 4.16667 7.49984M10 13.3332C11.4591 11.7358 12.289 9.66282 12.3341 7.49984C12.289 5.33686 11.4591 3.26388 10 1.6665M10 13.3332C8.54092 11.7358 7.71249 9.66282 7.66743 7.49984C7.71249 5.33686 8.54092 3.26388 10 1.6665M10 13.3332V14.9998M4.16667 7.49984C4.16667 4.27818 6.77834 1.6665 10 1.6665M11.6667 16.6665C11.6667 17.587 10.9205 18.3332 10 18.3332C9.07953 18.3332 8.33333 17.587 8.33333 16.6665M11.6667 16.6665C11.6667 15.746 10.9205 14.9998 10 14.9998M11.6667 16.6665H17.5M8.33333 16.6665C8.33333 15.746 9.07953 14.9998 10 14.9998M8.33333 16.6665H2.5" stroke="#707070" stroke-width="1.5" stroke-linecap="round" stroke-linejoin="round"/>
</svg>
