<svg width="20" height="20" viewBox="0 0 20 20" fill="none" xmlns="http://www.w3.org/2000/svg">
<g id="Icon">
<path id="Vector" d="M16.6667 8.33366V5.66699C16.6667 4.26686 16.6667 3.5668 16.3942 3.03202C16.1545 2.56161 15.7721 2.17916 15.3017 1.93948C14.7669 1.66699 14.0668 1.66699 12.6667 1.66699H7.33337C5.93324 1.66699 5.23318 1.66699 4.6984 1.93948C4.22799 2.17916 3.84554 2.56161 3.60586 3.03202C3.33337 3.5668 3.33337 4.26686 3.33337 5.66699V14.3337C3.33337 15.7338 3.33337 16.4339 3.60586 16.9686C3.84554 17.439 4.22799 17.8215 4.6984 18.0612C5.23318 18.3337 5.93324 18.3337 7.33337 18.3337H8.75004M10.8334 9.16699H6.66671M9.16671 12.5003H6.66671M13.3334 5.83366H6.66671M16.0417 14.167V12.7087C16.0417 11.9032 15.3888 11.2503 14.5834 11.2503C13.778 11.2503 13.125 11.9032 13.125 12.7087V14.167M13 17.5003H16.1667C16.6334 17.5003 16.8668 17.5003 17.045 17.4095C17.2018 17.3296 17.3293 17.2021 17.4092 17.0453C17.5 16.8671 17.5 16.6337 17.5 16.167V15.5003C17.5 15.0336 17.5 14.8003 17.4092 14.622C17.3293 14.4652 17.2018 14.3377 17.045 14.2578C16.8668 14.167 16.6334 14.167 16.1667 14.167H13C12.5333 14.167 12.3 14.167 12.1217 14.2578C11.9649 14.3377 11.8374 14.4652 11.7575 14.622C11.6667 14.8003 11.6667 15.0336 11.6667 15.5003V16.167C11.6667 16.6337 11.6667 16.8671 11.7575 17.0453C11.8374 17.2021 11.9649 17.3296 12.1217 17.4095C12.3 17.5003 12.5333 17.5003 13 17.5003Z" stroke="#707070" stroke-width="1.5" stroke-linecap="round" stroke-linejoin="round"/>
</g>
</svg>
