<svg width="20" height="20" viewBox="0 0 20 20" fill="none" xmlns="http://www.w3.org/2000/svg">
<g id="Icon" clip-path="url(#clip0_123_1391)">
<path id="Vector" d="M4.43021 16.1985C4.93714 15.0042 6.12073 14.1665 7.49996 14.1665H12.5C13.8792 14.1665 15.0628 15.0042 15.5697 16.1985M13.3333 7.9165C13.3333 9.75745 11.8409 11.2498 9.99996 11.2498C8.15901 11.2498 6.66663 9.75745 6.66663 7.9165C6.66663 6.07555 8.15901 4.58317 9.99996 4.58317C11.8409 4.58317 13.3333 6.07555 13.3333 7.9165ZM18.3333 9.99984C18.3333 14.6022 14.6023 18.3332 9.99996 18.3332C5.39759 18.3332 1.66663 14.6022 1.66663 9.99984C1.66663 5.39746 5.39759 1.6665 9.99996 1.6665C14.6023 1.6665 18.3333 5.39746 18.3333 9.99984Z" stroke="#707070" stroke-width="1.5" stroke-linecap="round" stroke-linejoin="round"/>
</g>
<defs>
<clipPath id="clip0_123_1391">
<rect width="20" height="20" fill="white"/>
</clipPath>
</defs>
</svg>
