<svg width="24" height="24" viewBox="0 0 24 24" fill="none" xmlns="http://www.w3.org/2000/svg">
<rect width="24" height="24" rx="12" fill="white"/>
<path d="M24 12C24 18.628 18.628 24 12 24C5.372 24 0 18.628 0 12C0 10.169 0.408575 8.44388 1.13493 6.90038C0.650694 8.1261 0.423707 9.35183 0.423707 10.4868C0.423707 15.9193 4.81211 16.7062 6.67339 16.691C9.51828 16.6608 12.8323 15.2686 15.6318 12.6961C15.6318 12.6961 15.2686 14.7238 15.1627 15.3443C15.0567 15.9496 15.4502 16.4792 16.0555 16.4792H16.2976C16.918 16.4792 17.372 15.9647 17.4779 15.3443L18.4918 9.68474C18.6129 9.04918 18.2043 8.54981 17.5687 8.54981H11.9092C11.2736 8.54981 10.6986 8.88272 10.5927 9.51829C10.5927 9.54855 10.5473 9.73014 10.5473 9.77553C10.4565 10.3808 10.8802 10.8348 11.4855 10.8348H14.4363C14.3909 10.8802 14.3455 10.9256 14.3001 10.971C12.2572 12.8928 9.73014 13.9521 7.64187 13.9521C5.56873 13.9521 3.23834 12.6356 3.23834 9.68474C3.23834 3.55612 8.98865 0 12 0C18.6129 0 24 5.372 24 12Z" fill="#DF2127"/>
</svg>
