<svg width="100%" height="100%" viewBox="0 0 32 32" fill="none" xmlns="http://www.w3.org/2000/svg">
  <g id="Asset">
    <!-- Background rectangle with rounded corners -->
    <rect width="100%" height="100%" rx="50" fill="#161616"/>
    <!-- Border circle -->
    <circle id="Border" cx="50%" cy="50%" r="48%" stroke="#343434"/>
    <path d="M17.684 8.086C15.84 6.741 12.984 6.651 11.004 7.786L10.347 8.162L19 14.47C19.622 14.926 20.42 15.141 21.195 15.141C21.97 15.141 22.768 14.926 23.394 14.47C23.767 14.198 24 13.802 24 13.36C24 12.918 23.767 12.522 23.394 12.25L17.684 8.086Z" fill="#707070"/>
    <!-- Second path -->
    <path d="M13.004 17.53C12.378 17.074 11.58 16.859 10.805 16.859C10.03 16.859 9.232 17.074 8.607 17.53C8.233 17.802 8 18.198 8 18.64C8 19.082 8.233 19.478 8.607 19.751L14.316 23.914C16.16 25.259 19.016 25.349 20.996 24.214L21.653 23.838L13.004 17.53Z" fill="#707070"/>
    <!-- Third path -->
    <path d="M21.894 17.59L9.898 8.842L9.604 9.114C8.793 9.867 8.392 10.823 8.467 11.795C8.542 12.764 9.085 13.676 10.02 14.358L22.015 23.106L22.309 22.833C23.12 22.081 23.522 21.124 23.447 20.153C23.372 19.184 22.829 18.272 21.894 17.59Z" fill="#707070"/>
  </g>
</svg>