<svg width="24" height="24" viewBox="0 0 24 24" fill="none" xmlns="http://www.w3.org/2000/svg">
<circle cx="12" cy="12" r="12" fill="#7D00FF"/>
<path d="M16.1549 9.69018C16.5198 9.69018 16.8766 9.58197 17.18 9.37923C17.4834 9.17649 17.7199 8.88832 17.8596 8.55118C17.9992 8.21403 18.0357 7.84304 17.9645 7.48513C17.8934 7.12722 17.7176 6.79846 17.4596 6.54042C17.2015 6.28237 16.8728 6.10665 16.5149 6.03545C16.157 5.96426 15.786 6.0008 15.4488 6.14045C15.1117 6.2801 14.8235 6.51659 14.6208 6.82001C14.418 7.12344 14.3098 7.48017 14.3098 7.84509C14.3098 8.0874 14.3575 8.32733 14.4502 8.55119C14.543 8.77506 14.6789 8.97847 14.8502 9.1498C15.0215 9.32114 15.2249 9.45704 15.4488 9.54976C15.6727 9.64248 15.9126 9.6902 16.1549 9.69018ZM10.4974 18C9.60791 18 8.73838 17.7362 7.99878 17.242C7.25919 16.7479 6.68274 16.0455 6.34235 15.2237C6.00195 14.4019 5.91288 13.4976 6.08642 12.6252C6.25995 11.7528 6.68829 10.9514 7.31727 10.3224C7.94624 9.69346 8.7476 9.26513 9.62001 9.09159C10.4924 8.91806 11.3967 9.00713 12.2185 9.34753C13.0403 9.68793 13.7427 10.2644 14.2369 11.004C14.731 11.7436 14.9948 12.6131 14.9948 13.5026C14.9948 14.0932 14.8785 14.678 14.6525 15.2237C14.4265 15.7694 14.0952 16.2652 13.6776 16.6828C13.26 17.1004 12.7642 17.4317 12.2185 17.6577C11.6729 17.8837 11.088 18 10.4974 18Z" fill="white"/>
</svg>
