<svg width="16" height="18" viewBox="0 0 16 18" fill="none" xmlns="http://www.w3.org/2000/svg">
<path d="M15 12.1551V5.77982C14.9997 5.50033 14.9277 5.22582 14.7912 4.98384C14.6547 4.74186 14.4585 4.54092 14.2222 4.40117L8.77778 1.21353C8.5413 1.07364 8.27306 1 8 1C7.72694 1 7.4587 1.07364 7.22222 1.21353L1.77778 4.40117C1.54154 4.54092 1.34532 4.74186 1.2088 4.98384C1.07229 5.22582 1.00028 5.50033 1 5.77982V12.1551C1.00028 12.4346 1.07229 12.7091 1.2088 12.9511C1.34532 13.1931 1.54154 13.394 1.77778 13.5338L7.22222 16.7214C7.4587 16.8613 7.72694 16.9349 8 16.9349C8.27306 16.9349 8.5413 16.8613 8.77778 16.7214L14.2222 13.5338C14.4585 13.394 14.6547 13.1931 14.7912 12.9511C14.9277 12.7091 14.9997 12.4346 15 12.1551Z" stroke="white" stroke-opacity="0.6" stroke-width="1.5" stroke-linecap="round" stroke-linejoin="round"/>
<path d="M1.20996 4.95312L7.99996 8.97752L14.79 4.95312" stroke="white" stroke-opacity="0.6" stroke-width="1.5" stroke-linecap="round" stroke-linejoin="round"/>
<path d="M8 16.9996V8.9668" stroke="white" stroke-opacity="0.6" stroke-width="1.5" stroke-linecap="round" stroke-linejoin="round"/>
</svg>
