<svg width="20" height="20" viewBox="0 0 20 20" fill="none" xmlns="http://www.w3.org/2000/svg">
<path d="M9.41838 18.0122C9.60287 18.1198 9.69512 18.1737 9.82531 18.2016C9.92634 18.2232 10.0737 18.2232 10.1748 18.2016C10.305 18.1737 10.3972 18.1198 10.5817 18.0122C12.2051 17.0651 16.6667 14.0902 16.6667 9.99981V6.01448C16.6667 5.34822 16.6667 5.01509 16.5577 4.72873C16.4615 4.47576 16.3051 4.25004 16.102 4.07109C15.8721 3.86851 15.5602 3.75154 14.9364 3.5176L10.4682 1.84204C10.295 1.77707 10.2083 1.74459 10.1192 1.73171C10.0402 1.72029 9.9599 1.72029 9.88086 1.73171C9.79175 1.74459 9.70512 1.77707 9.53188 1.84204L5.06371 3.5176C4.43987 3.75154 4.12795 3.86851 3.89809 4.07109C3.69503 4.25004 3.5386 4.47576 3.44234 4.72873C3.33337 5.01509 3.33337 5.34822 3.33337 6.01448V9.99981C3.33337 14.0902 7.79501 17.0651 9.41838 18.0122Z" stroke="#707070" stroke-width="1.5" stroke-linecap="round" stroke-linejoin="round"/>
</svg>
