<svg width="8" height="8" viewBox="0 0 8 8" fill="none" xmlns="http://www.w3.org/2000/svg">
<path d="M6.35702 6.35671C7.65877 5.05496 7.65877 2.94441 6.35702 1.64267C6.09098 1.37663 5.86825 1.16623 5.68212 0.999675H6.66666C6.85076 0.999675 7 0.850436 7 0.666341C7 0.482246 6.85076 0.333008 6.66666 0.333008L4.66666 0.333008C4.48257 0.333008 4.33333 0.482246 4.33333 0.666341V2.66634C4.33333 2.85044 4.48257 2.99967 4.66666 2.99967C4.85076 2.99967 5 2.85044 5 2.66634V1.29112C5.20573 1.46185 5.49291 1.72137 5.88561 2.11407C6.92701 3.15547 6.92701 4.84391 5.88561 5.88531C5.51628 6.25464 5.06647 6.49256 4.59291 6.60001C4.41337 6.64074 4.30086 6.8193 4.34159 6.99883C4.38233 7.17837 4.56089 7.29088 4.74042 7.25015C5.33304 7.11569 5.89617 6.81756 6.35702 6.35671Z" fill="#707070"/>
<path d="M3.40709 1.39936C3.58663 1.35863 3.69914 1.18007 3.65841 1.00054C3.61767 0.821003 3.43911 0.708486 3.25958 0.749221C2.66696 0.883682 2.10383 1.18181 1.64298 1.64266C0.341234 2.94441 0.341234 5.05496 1.64298 6.3567C1.90891 6.62263 2.13163 6.83304 2.31786 6.99967H1.33333C1.14923 6.99967 0.999995 7.14891 0.999995 7.33301C0.999995 7.5171 1.14923 7.66634 1.33333 7.66634H3.33333C3.51742 7.66634 3.66666 7.5171 3.66666 7.33301V5.33301C3.66666 5.14891 3.51742 4.99967 3.33333 4.99967C3.14923 4.99967 3 5.14891 3 5.33301L3 6.70824C2.79453 6.53773 2.50736 6.27827 2.11439 5.8853C1.07299 4.8439 1.07299 3.15546 2.11439 2.11406C2.48372 1.74473 2.93353 1.50681 3.40709 1.39936Z" fill="#707070"/>
</svg>
