<svg width="19" height="19" fill="none" xmlns="http://www.w3.org/2000/svg"><path d="M9.52 19a9.454 9.454 0 01-6.731-2.788A9.455 9.455 0 010 9.48c0-2.543.99-4.934 2.788-6.731l.88-.881.67 1.05c3.2 5.019 7.144 8.965 11.722 11.73l1.094.66-.903.903A9.453 9.453 0 019.52 19zM3.393 5.119c-2.092 2.935-1.822 7.047.809 9.679A7.473 7.473 0 009.52 17c1.577 0 3.08-.482 4.341-1.377C9.853 12.978 6.34 9.453 3.393 5.119zM19 8h-2c0-3.309-2.691-6-6-6V0c4.411 0 8 3.589 8 8z" fill="#423CD5"/><path d="M15 7.998h-2c0-1.103-.897-2-2-2v-2c2.206 0 4 1.794 4 4zm-6.414-.414a2 2 0 112.828 2.828c-.78.781-1.633.367-2.414-.414-.78-.78-1.195-1.633-.414-2.414z" fill="#423CD5"/></svg>