<svg width="32" height="32" viewBox="0 0 32 32" fill="none" xmlns="http://www.w3.org/2000/svg">
<g id="Asset">
<rect width="32" height="32" rx="16" fill="#161616"/>
<circle id="Border" cx="16" cy="16" r="15.5" stroke="#343434"/>
<g id="Flattened">
<path d="M17.6841 8.0858C15.8397 6.74069 12.9841 6.65073 11.0039 7.78591L10.3473 8.16227L18.9963 14.4698C19.6223 14.9263 20.4197 15.1409 21.1949 15.1409C21.9701 15.1409 22.7675 14.9263 23.3935 14.4698C23.7668 14.1976 24 13.8017 24 13.3597C24 12.9176 23.7668 12.5218 23.3935 12.2495L17.6841 8.0858Z" fill="#707070"/>
<path d="M13.0037 17.5302C12.3777 17.0737 11.5803 16.8591 10.8051 16.8591C10.0299 16.8591 9.23247 17.0737 8.60651 17.5302C8.23321 17.8024 8 18.1983 8 18.6403C8 19.0824 8.23322 19.4782 8.60651 19.7505L14.3159 23.9142C16.1603 25.2593 19.0159 25.3493 20.9962 24.2141L21.6527 23.8377L13.0037 17.5302Z" fill="#707070"/>
<path d="M21.8935 17.5897L9.89806 8.84169L9.6042 9.11432C8.79307 9.86686 8.39181 10.8233 8.46675 11.7946C8.54153 12.7638 9.08457 13.6755 10.0199 14.3577L22.0154 23.1056L22.3092 22.833C23.1203 22.0805 23.5216 21.1241 23.4467 20.1528C23.3719 19.1835 22.8288 18.2718 21.8935 17.5897Z" fill="#707070"/>
</g>
</g>
</svg>
