<svg width="14" height="14" viewBox="0 0 14 14" fill="none" xmlns="http://www.w3.org/2000/svg">
<g id="Icon">
<path id="Vector" d="M5.1384 1.86473L6.67228 1.28953C6.79356 1.24405 6.85419 1.22131 6.91657 1.2123C6.9719 1.2043 7.0281 1.2043 7.08343 1.2123C7.14581 1.22131 7.20644 1.24405 7.32771 1.28953L10.4554 2.46242C10.8921 2.62618 11.1105 2.70805 11.2714 2.84986C11.4135 2.97513 11.523 3.13313 11.5904 3.31021C11.6667 3.51066 11.6667 3.74385 11.6667 4.21023V6.99997C11.6667 7.42014 11.5994 7.82351 11.481 8.20804M10.2794 10.2816C9.29611 11.4252 8.04293 12.2377 7.40812 12.6081C7.27837 12.6838 7.2135 12.7216 7.12236 12.7412C7.05164 12.7564 6.94844 12.7564 6.87772 12.7412C6.78658 12.7217 6.722 12.684 6.59284 12.6086C5.45648 11.9457 2.33333 9.86322 2.33333 6.99997V3.36948C2.33333 3.09709 2.5023 2.85327 2.75735 2.75763M1.75 1.74997L12.25 12.25" stroke="#FFB224" stroke-width="1.25" stroke-linecap="round" stroke-linejoin="round"/>
</g>
</svg>
