<svg width="14" height="12" viewBox="0 0 14 12" fill="none" xmlns="http://www.w3.org/2000/svg">
<path d="M6.99994 4.37116V6.58077M6.99994 8.79038H7.00568M6.018 1.53182L1.15392 9.34279C1.05363 9.50985 1.00057 9.69926 1 9.89217C0.999443 10.0851 1.0514 10.2748 1.15071 10.4424C1.25003 10.61 1.39323 10.7496 1.56607 10.8475C1.73892 10.9453 1.93538 10.9979 2.13592 11H11.8641C12.0646 10.9979 12.2611 10.9453 12.4339 10.8475C12.6068 10.7496 12.75 10.61 12.8493 10.4424C12.9486 10.2748 13.0006 10.0851 13 9.89217C12.9994 9.69926 12.9464 9.50985 12.8461 9.34279L7.982 1.53182C7.87963 1.36947 7.73548 1.23525 7.56347 1.14209C7.39146 1.04894 7.1974 1 7 1C6.8026 1 6.60854 1.04894 6.43653 1.14209C6.26452 1.23525 6.12037 1.36947 6.018 1.53182Z" stroke="white" stroke-width="1.5" stroke-linecap="round" stroke-linejoin="round"/>
</svg>
