<svg width="24" height="24" viewBox="0 0 24 24" fill="none" xmlns="http://www.w3.org/2000/svg">
<path d="M3.27271 0.000109098C1.47821 0.000109098 0 1.47832 0 3.27282V20.7273C0 22.5349 1.46508 24 3.27271 24H21.8181C23.0235 24 23.9999 23.0236 23.9999 21.8182V6.54553C23.9999 5.34008 23.0235 4.36373 21.8181 4.36373H13.0908H3.27271C2.65632 4.36373 2.18181 3.88922 2.18181 3.27282C2.18181 2.65643 2.65632 2.18192 3.27271 2.18192H19.6363C19.7808 2.18396 19.9244 2.15725 20.0585 2.10335C20.1926 2.04944 20.3147 1.96941 20.4177 1.86791C20.5206 1.76641 20.6024 1.64546 20.6582 1.51209C20.714 1.37872 20.7427 1.23559 20.7427 1.09101C20.7427 0.946441 20.714 0.803311 20.6582 0.66994C20.6024 0.536569 20.5206 0.415617 20.4177 0.314115C20.3147 0.212612 20.1926 0.132583 20.0585 0.0786771C19.9244 0.0247714 19.7808 -0.00193531 19.6363 0.000109098H3.27271ZM19.6363 12.0001C20.8417 12.0001 21.8181 12.9764 21.8181 14.1819C21.8181 15.3873 20.8417 16.3637 19.6363 16.3637C18.4308 16.3637 17.4545 15.3873 17.4545 14.1819C17.4545 12.9764 18.4308 12.0001 19.6363 12.0001Z" fill="white"/>
</svg>
