<svg width="16" height="16" viewBox="0 0 16 16" fill="none" xmlns="http://www.w3.org/2000/svg">
<g id="Icon">
<path id="Vector" d="M6.00543 2.49795L7.64888 1.88165C7.77881 1.83293 7.84378 1.80856 7.91061 1.79891C7.9699 1.79034 8.0301 1.79034 8.08938 1.79891C8.15622 1.80856 8.22119 1.83293 8.35112 1.88165L11.7022 3.13832C12.1701 3.31378 12.4041 3.4015 12.5765 3.55344C12.7288 3.68765 12.8461 3.85694 12.9183 4.04667C13 4.26144 13 4.51129 13 5.01098V7.99998C13 8.45017 12.9279 8.88234 12.8011 9.29434M11.5137 11.516C10.4601 12.7413 9.11743 13.6118 8.43727 14.0087C8.29826 14.0898 8.22875 14.1304 8.1311 14.1513C8.05533 14.1676 7.94476 14.1676 7.86898 14.1513C7.77133 14.1304 7.70214 14.09 7.56376 14.0093C6.34623 13.299 3 11.0678 3 7.99998V4.11018C3 3.81833 3.18104 3.55709 3.4543 3.45462M2.375 2.37498L13.625 13.625" stroke="#707070" stroke-width="1.25" stroke-linecap="round" stroke-linejoin="round"/>
</g>
</svg>
