<svg width="14" height="14" viewBox="0 0 14 14" fill="none" xmlns="http://www.w3.org/2000/svg">
<g id="Icon">
<path id="Vector" d="M5.1384 1.86498L6.67228 1.28977C6.79356 1.24429 6.85419 1.22155 6.91657 1.21254C6.9719 1.20454 7.0281 1.20454 7.08343 1.21254C7.14581 1.22155 7.20644 1.24429 7.32771 1.28977L10.4554 2.46266C10.8921 2.62642 11.1105 2.7083 11.2714 2.8501C11.4135 2.97537 11.523 3.13337 11.5904 3.31045C11.6667 3.5109 11.6667 3.7441 11.6667 4.21048V7.00021C11.6667 7.42039 11.5994 7.82375 11.481 8.20828M10.2794 10.2818C9.29611 11.4254 8.04293 12.2379 7.40812 12.6083C7.27837 12.684 7.2135 12.7219 7.12236 12.7414C7.05164 12.7566 6.94844 12.7566 6.87772 12.7415C6.78658 12.7219 6.722 12.6842 6.59284 12.6089C5.45648 11.9459 2.33333 9.86347 2.33333 7.00021V3.36972C2.33333 3.09733 2.5023 2.85351 2.75735 2.75787M1.75 1.75021L12.25 12.2502" stroke="#FFB224" stroke-width="1.25" stroke-linecap="round" stroke-linejoin="round"/>
</g>
</svg>
