<svg width="20" height="20" viewBox="0 0 20 20" fill="none" xmlns="http://www.w3.org/2000/svg">
<g clip-path="url(#clip0_123_1370)">
<path d="M7.61351 7.61341L4.1074 4.1073M4.1074 15.8924L7.63993 12.3599M12.3842 12.3863L15.8903 15.8924M15.8903 4.1073L12.3572 7.64035M18.3333 9.99984C18.3333 14.6022 14.6023 18.3332 9.99996 18.3332C5.39759 18.3332 1.66663 14.6022 1.66663 9.99984C1.66663 5.39746 5.39759 1.6665 9.99996 1.6665C14.6023 1.6665 18.3333 5.39746 18.3333 9.99984ZM13.3333 9.99984C13.3333 11.8408 11.8409 13.3332 9.99996 13.3332C8.15901 13.3332 6.66663 11.8408 6.66663 9.99984C6.66663 8.15889 8.15901 6.6665 9.99996 6.6665C11.8409 6.6665 13.3333 8.15889 13.3333 9.99984Z" stroke="#707070" stroke-width="1.5" stroke-linecap="round" stroke-linejoin="round"/>
</g>
<defs>
<clipPath id="clip0_123_1370">
<rect width="20" height="20" fill="white"/>
</clipPath>
</defs>
</svg>
