<svg width="8" height="8" viewBox="0 0 8 8" fill="none" xmlns="http://www.w3.org/2000/svg">
<path d="M7.19835 0.48616C7.06643 0.442089 6.94361 0.47396 6.88255 0.491697C6.816 0.511026 6.7367 0.541991 6.65713 0.573058L1.00476 2.77886C0.915819 2.81355 0.82967 2.84716 0.763178 2.88004C0.705726 2.90845 0.583613 2.97167 0.515451 3.10288C0.440283 3.24757 0.440385 3.41982 0.515722 3.56441C0.584039 3.69554 0.706226 3.75862 0.763711 3.78696C0.830239 3.81976 0.916414 3.85326 1.0054 3.88785L2.57874 4.4997C2.69611 4.54535 2.7548 4.56817 2.81318 4.56957C2.86479 4.57081 2.91598 4.56005 2.96271 4.53813C3.01559 4.51333 3.06011 4.46881 3.14916 4.37976L4.7643 2.76462C4.89447 2.63445 5.10553 2.63445 5.2357 2.76462C5.36588 2.8948 5.36588 3.10585 5.2357 3.23603L3.62057 4.85116C3.53152 4.94021 3.48699 4.98474 3.4622 5.03761C3.44028 5.08435 3.42951 5.13554 3.43075 5.18715C3.43215 5.24553 3.45498 5.30422 3.50062 5.42159L4.11247 6.9949C4.14706 7.08389 4.18056 7.17008 4.21336 7.23661C4.2417 7.2941 4.30479 7.41629 4.43591 7.4846C4.58051 7.55994 4.75276 7.56004 4.89745 7.48487C5.02865 7.41671 5.09188 7.2946 5.12029 7.23715C5.15316 7.17066 5.18676 7.08452 5.22146 6.99558L7.42727 1.3432C7.45833 1.26363 7.4893 1.18432 7.50863 1.11778C7.52636 1.05671 7.55824 0.933893 7.51416 0.80197C7.46437 0.652921 7.3474 0.535953 7.19835 0.48616Z" fill="#707070"/>
</svg>
