<svg xmlns="http://www.w3.org/2000/svg" viewBox="0 0 104.9 140.08"><defs><style>.cls-1{fill:#64c3ff;}</style></defs><g id="Layer_2" data-name="Layer 2"><g id="Layer_1-2" data-name="Layer 1"><path class="cls-1" d="M66.25,58.08c-.92-4.44-3.45-15.8-5-23.28C60.3,30.07,59.64,23,63.65,22c4.7-1.19,7,5,8.51,9.76,1.67,5.26,8.66,29,8.66,29s-1.75-12-2.35-17c-.74-6-1.22-11.44,2.93-12.48s6.5,5.35,7.86,9.65c1.2,3.78,11.64,40.3,11.64,40.3C106.53,103.48,110,123,84.14,135.6c-17,8.27-33.95,6.52-47.7-17.55a113.89,113.89,0,0,1-8.13-16.92c-4.26-10.5-8-18.78-2.5-21.5C32.56,76.31,42.6,94.77,42.6,94.77s-7.9-27.57-10-36.19c-2.23-9.21-3-14.61,1.46-16.43,5.07-2.06,9.49,6.46,11.56,11.43,1.3,3.14,5.09,11.92,7.28,16.87.85,1.91,1.51,3.77,2,3.53s-1-4.24-1.37-5.38c-2.19-7.16-8.45-25.14-9.84-30.24C42,32.11,38.15,21.77,44,19.78c6-2.08,9.91,7.18,12.84,15.7,2.2,6.36,6.67,18.37,8.55,23.87,1,2.94,1.53,4.29,1.82,4.21C67.61,63.44,66.62,59.85,66.25,58.08Z"/><path d="M102.21,28.08C98.07,10.58,84.11,12.89,83.51,13L83,10.36c5.88-1.07,18,1.15,21.78,17.1Z"/><path d="M102.32,11.51c-9-12.47-22.43-8.25-23-8.06L78.48.9c.16-.05,15.84-5,26,9Z"/><path d="M15.78,107.49C5.28,91.21,9.63,77.59,9.82,77l2.54.84-1.27-.42,1.27.42c0,.13-4.1,13,5.67,28.18Z"/><path d="M1.64,95.08C-2.92,80.64,3.44,70.41,3.71,70L6,71.42,4.84,70.7,6,71.42C5.92,71.51,0,81.07,4.2,94.27Z"/><path d="M70.93,120c-3.31-21.68-21.83-19.35-22.62-19.23l-.38-2.66c.22,0,21.93-2.85,25.65,21.48Z"/><path d="M80.3,64.61c-.68-3.3-1.43-6.08-1.44-6.1l2.59-.71c0,.12.78,2.88,1.47,6.26Z"/><path d="M57.91,85.49l-1.12-2.44A99,99,0,0,1,89,74.19l.29,2.67A96.05,96.05,0,0,0,57.91,85.49Z"/><path d="M54,76c-.74-2.21-2.09-6.92-2.15-7.12l2.58-.74s1.39,4.85,2.11,7Z"/><path d="M67.48,69.77c-1.42-4.67-2.27-7.61-2.27-7.61l2.58-.74s.84,2.93,2.26,7.57Z"/></g></g></svg>