<svg xmlns="http://www.w3.org/2000/svg" viewBox="0 0 123.58 174.4"><defs><style>.cls-1{fill:#2273fa;}.cls-2{fill:#ffc900;}.cls-3{fill:#39b44a;}.cls-4{fill:#ffd2cf;}.cls-5{fill:#fff;}.cls-6{fill:#f97467;}.cls-7{fill:#64c3ff;}</style></defs><g id="Layer_2" data-name="Layer 2"><g id="Layer_1-2" data-name="Layer 1"><path class="cls-1" d="M103,75a16.65,16.65,0,0,0-4.83-6.14A27.76,27.76,0,0,1,95,65.58a7.8,7.8,0,0,1,.32-1.64c1-3.19,4.15-5.63,6.36-8.41,1.62-2.05,2.65-4.72,2-7a11.68,11.68,0,0,0-.65-2.91,16.65,16.65,0,0,0-4.83-6.14c-1.87-1.71-3.82-3.5-4.89-6.08s-1.12-5.76-2-8.51a13,13,0,0,0-12.8-8.85c-2.49.05-5,.62-7.44-.14-3.19-1-5.63-4.15-8.42-6.36a11.05,11.05,0,0,0-3.12-1.75c-1.66-.78-4.94-.5-6.83.24-2.62,1-4.44,3-6.15,4.83S43,16.73,40.42,17.8s-5.75,1.12-8.5,2a13,13,0,0,0-8.85,12.81c0,2.49.62,5-.14,7.44-1,3.19-4.15,5.63-6.36,8.41a11.42,11.42,0,0,0-1.68,2.9,4.66,4.66,0,0,0-.39,1.42,5.51,5.51,0,0,0-.08,1.76,11.87,11.87,0,0,0,.7,3.69c1,2.62,3,4.44,4.83,6.15a27,27,0,0,1,3.29,3.38,8.66,8.66,0,0,1-.31,1.58c-1,3.19-4.15,5.63-6.36,8.42a11.19,11.19,0,0,0-1.68,2.89,4.66,4.66,0,0,0-.39,1.42,5.51,5.51,0,0,0-.08,1.76,11.87,11.87,0,0,0,.7,3.69,15.56,15.56,0,0,0,4.32,5.68v23.37H35.6a13.73,13.73,0,0,0,4,.53c2.49,0,5-.62,7.44.14,3.19,1,5.63,4.15,8.42,6.36a11.08,11.08,0,0,0,3,1.71c1.56.94,5.09.67,7.08-.11,2.62-1,4.44-3,6.14-4.83s3.5-3.82,6.08-4.89,5.76-1.12,8.51-2a13,13,0,0,0,8.85-12.81c0-2.49-.62-5,.14-7.44,1-3.19,4.15-5.63,6.36-8.41,1.62-2,2.65-4.72,2-6.95A11.78,11.78,0,0,0,103,75Z"/><rect class="cls-2" x="35.58" y="70.04" width="18.08" height="5.88" transform="translate(-26.18 24.97) rotate(-24.42)"/><polyline class="cls-3" points="111.72 62.96 96.48 77.8 90.89 58.64"/><circle class="cls-4" cx="67.89" cy="38.99" r="13.88"/><path class="cls-5" d="M36.3,53.14l-.85-3.42c.22,0,5.48-1.42,4.74-5-.29-1.4-1.15-1.82-2.9-2.56-1.93-.81-4.58-1.92-5.34-5.6-.85-4,1.42-6,2.92-7.3s1.8-1.64,1.55-2.88c-.31-1.48-1.12-1.85-2.92-2.53s-4.5-1.72-5.32-5.28A6.15,6.15,0,0,1,29,13.85c2-3.08,6.27-4.08,6.76-4.18l.73,3.44-.37-1.72.38,1.72c-.93.2-3.54,1.07-4.53,2.64a2.59,2.59,0,0,0-.31,2.07c.38,1.66,1.29,2.07,3.14,2.78s4.4,1.68,5.11,5.1-1.26,5-2.69,6.26-2.2,1.91-1.78,3.92c.37,1.79,1.38,2.28,3.26,3.08s4.3,1.81,5,5.08C44.78,49.52,39.33,52.39,36.3,53.14Z"/><path class="cls-6" d="M85.58,47.09a16.52,16.52,0,0,1-14-25.1L80.14,7.9A16.5,16.5,0,1,1,108.3,25.1L99.69,39.2A16.5,16.5,0,0,1,85.58,47.09ZM94.24,5.4a11.11,11.11,0,0,0-9.49,5.31l-8.61,14.1A11.1,11.1,0,1,0,95.08,36.38l8.61-14.1A11.09,11.09,0,0,0,94.24,5.4Z"/><rect class="cls-4" x="22.14" y="92.68" width="17.06" height="17.06" transform="translate(109.97 31.25) rotate(65.44)"/><path class="cls-2" d="M93.82,17.7a17.82,17.82,0,0,1,23.87,26.47"/><ellipse class="cls-6" cx="62.53" cy="99.53" rx="7.85" ry="16.68" transform="translate(-38.62 39.66) rotate(-27.24)"/><path class="cls-7" d="M22.9,103.69v-22a24.61,24.61,0,0,1,49.22,0H84.83a37.32,37.32,0,0,0-74.64,0v22H0V174.4H95.53V103.69Z"/><rect x="87.69" y="109.67" width="2.19" height="25.52"/><rect x="7.88" y="165.57" width="13.08" height="2.19"/><circle class="cls-5" cx="78.47" cy="81.68" r="6.36"/></g></g></svg>