<svg xmlns="http://www.w3.org/2000/svg" viewBox="0 0 161.13 104.72"><defs><style>.cls-1{fill:#ffc300;}.cls-2{fill:#fff;}</style></defs><g id="Layer_2" data-name="Layer 2"><g id="Layer_1-2" data-name="Layer 1"><path class="cls-1" d="M84,0C59.54,0,45,18.61,45,37.84c0,5.89-.62,10.71-3.11,15.67S36.67,64,38.48,66.45s3.57,2,6.38,2,4.78.49,4.78,4.29V83.83c0,3.79,4.34,8.35,11.11,8.35h8v12.54h35.82V90.36c0-5.28,3.46-12,9.07-20.8s9.41-12.71,9.41-31.69S110.51,0,84,0Z"/><rect class="cls-2" x="139.09" y="10.7" width="14.27" height="3.79" transform="translate(16.05 80.39) rotate(-32.43)"/><rect class="cls-2" x="144.15" y="72.86" width="3.79" height="14.27" transform="translate(0.2 160.36) rotate(-57.57)"/><rect class="cls-2" x="146.87" y="44.92" width="14.26" height="3.79"/><rect class="cls-2" x="13.01" y="5.46" width="3.79" height="14.27" transform="translate(-3.72 18.42) rotate(-57.57)"/><rect class="cls-2" x="7.95" y="78.1" width="14.27" height="3.79" transform="translate(-40.55 20.57) rotate(-32.43)"/><rect class="cls-2" y="44.92" width="14.26" height="3.79"/><path d="M112,54.51l-2.42-.75c8.15-26-6.48-36.43-7.11-36.86l1.42-2.09C104.06,14.92,120.74,26.59,112,54.51Z"/><rect x="74.93" y="96.99" width="11.25" height="2.53"/></g></g></svg>