<svg width="428" height="248" viewBox="0 0 428 248" fill="none" xmlns="http://www.w3.org/2000/svg">
<rect y="8" width="340" height="240" rx="8" fill="#28282C"/>
<path d="M11 24C11 21.7909 12.7909 20 15 20H285C287.209 20 289 21.7909 289 24V48C289 50.2091 287.209 52 285 52H15C12.7909 52 11 50.2091 11 48V24Z" fill="#1C1C1F"/>
<circle cx="312" cy="36" r="35" fill="#1C1C1F" stroke="#634CC9" stroke-width="2"/>
<path d="M309.057 45.0938H305.257C304.707 45.0938 304.236 44.8979 303.844 44.5063C303.453 44.1146 303.257 43.6437 303.257 43.0938V39.2937C304.057 39.2937 304.757 39.0396 305.357 38.5312C305.957 38.0229 306.257 37.3771 306.257 36.5938C306.257 35.8104 305.957 35.1646 305.357 34.6562C304.757 34.1479 304.057 33.8938 303.257 33.8938V30.0938C303.257 29.5438 303.453 29.0729 303.844 28.6813C304.236 28.2896 304.707 28.0938 305.257 28.0938H309.257C309.257 27.3937 309.499 26.8021 309.982 26.3188C310.465 25.8354 311.057 25.5938 311.757 25.5938C312.457 25.5938 313.049 25.8354 313.532 26.3188C314.015 26.8021 314.257 27.3937 314.257 28.0938H318.257C318.807 28.0938 319.278 28.2896 319.669 28.6813C320.061 29.0729 320.257 29.5438 320.257 30.0938V34.0938C320.957 34.0938 321.549 34.3354 322.032 34.8188C322.515 35.3021 322.757 35.8938 322.757 36.5938C322.757 37.2937 322.515 37.8854 322.032 38.3688C321.549 38.8521 320.957 39.0938 320.257 39.0938V43.0938C320.257 43.6437 320.061 44.1146 319.669 44.5063C319.278 44.8979 318.807 45.0938 318.257 45.0938H314.457C314.457 44.2604 314.194 43.5521 313.669 42.9688C313.144 42.3854 312.507 42.0938 311.757 42.0938C311.007 42.0938 310.369 42.3854 309.844 42.9688C309.319 43.5521 309.057 44.2604 309.057 45.0938Z" fill="white"/>
<rect x="198.5" y="96.5" width="215" height="127" rx="7.5" fill="#1C1C1F" stroke="#2E2E32"/>
<circle cx="392" cy="160" r="35" fill="#1C1C1F" stroke="#634CC9" stroke-width="2"/>
<path d="M396.053 160.094L398.053 162.094V164.094H393.053V170.094L392.053 171.094L391.053 170.094V164.094H386.053V162.094L388.053 160.094V153.094H387.053V151.094H397.053V153.094H396.053V160.094Z" fill="white"/>
<path d="M247.599 166V154.364H254.815V155.875H249.354V159.42H254.298V160.926H249.354V166H247.599ZM256.728 166V157.273H258.37V158.659H258.461C258.62 158.189 258.9 157.82 259.302 157.551C259.707 157.278 260.165 157.142 260.677 157.142C260.783 157.142 260.908 157.146 261.052 157.153C261.2 157.161 261.315 157.17 261.398 157.182V158.807C261.33 158.788 261.209 158.767 261.035 158.744C260.861 158.718 260.686 158.705 260.512 158.705C260.111 158.705 259.753 158.79 259.438 158.96C259.128 159.127 258.881 159.36 258.7 159.659C258.518 159.955 258.427 160.292 258.427 160.67V166H256.728ZM266.317 166.176C265.458 166.176 264.717 165.992 264.096 165.625C263.478 165.254 263.001 164.733 262.664 164.062C262.331 163.388 262.164 162.598 262.164 161.693C262.164 160.799 262.331 160.011 262.664 159.33C263.001 158.648 263.471 158.116 264.073 157.733C264.679 157.35 265.388 157.159 266.198 157.159C266.691 157.159 267.168 157.241 267.63 157.403C268.092 157.566 268.507 157.822 268.874 158.17C269.242 158.519 269.531 158.972 269.744 159.528C269.956 160.081 270.062 160.754 270.062 161.545V162.148H263.124V160.875H268.397C268.397 160.428 268.306 160.032 268.124 159.688C267.942 159.339 267.687 159.064 267.357 158.864C267.031 158.663 266.649 158.562 266.21 158.562C265.732 158.562 265.316 158.68 264.96 158.915C264.607 159.146 264.335 159.449 264.141 159.824C263.952 160.195 263.857 160.598 263.857 161.034V162.028C263.857 162.612 263.96 163.108 264.164 163.517C264.372 163.926 264.662 164.239 265.033 164.455C265.405 164.667 265.838 164.773 266.335 164.773C266.656 164.773 266.95 164.727 267.215 164.636C267.48 164.542 267.71 164.402 267.903 164.216C268.096 164.03 268.244 163.801 268.346 163.528L269.954 163.818C269.825 164.292 269.594 164.706 269.261 165.062C268.931 165.415 268.516 165.689 268.016 165.886C267.52 166.08 266.954 166.176 266.317 166.176ZM271.947 166V157.273H273.646V166H271.947ZM272.805 155.926C272.509 155.926 272.255 155.828 272.043 155.631C271.835 155.43 271.731 155.191 271.731 154.915C271.731 154.634 271.835 154.396 272.043 154.199C272.255 153.998 272.509 153.898 272.805 153.898C273.1 153.898 273.352 153.998 273.56 154.199C273.772 154.396 273.879 154.634 273.879 154.915C273.879 155.191 273.772 155.43 273.56 155.631C273.352 155.828 273.1 155.926 272.805 155.926ZM279.59 169.455C278.897 169.455 278.3 169.364 277.8 169.182C277.304 169 276.899 168.759 276.585 168.46C276.27 168.161 276.035 167.833 275.88 167.477L277.34 166.875C277.442 167.042 277.579 167.218 277.749 167.403C277.924 167.593 278.158 167.754 278.454 167.886C278.753 168.019 279.138 168.085 279.607 168.085C280.251 168.085 280.783 167.928 281.204 167.614C281.624 167.303 281.835 166.807 281.835 166.125V164.409H281.727C281.624 164.595 281.477 164.801 281.283 165.028C281.094 165.256 280.833 165.453 280.499 165.619C280.166 165.786 279.732 165.869 279.198 165.869C278.509 165.869 277.888 165.708 277.335 165.386C276.785 165.061 276.35 164.581 276.028 163.949C275.71 163.312 275.55 162.53 275.55 161.602C275.55 160.674 275.708 159.879 276.022 159.216C276.34 158.553 276.776 158.045 277.329 157.693C277.882 157.337 278.509 157.159 279.21 157.159C279.751 157.159 280.189 157.25 280.522 157.432C280.855 157.61 281.115 157.818 281.3 158.057C281.49 158.295 281.636 158.506 281.738 158.688H281.863V157.273H283.528V166.193C283.528 166.943 283.353 167.559 283.005 168.04C282.656 168.521 282.185 168.877 281.59 169.108C280.999 169.339 280.333 169.455 279.59 169.455ZM279.573 164.46C280.062 164.46 280.475 164.347 280.812 164.119C281.153 163.888 281.41 163.559 281.585 163.131C281.763 162.699 281.852 162.182 281.852 161.58C281.852 160.992 281.764 160.475 281.59 160.028C281.416 159.581 281.16 159.233 280.823 158.983C280.486 158.729 280.069 158.602 279.573 158.602C279.062 158.602 278.636 158.735 278.295 159C277.954 159.261 277.696 159.617 277.522 160.068C277.352 160.519 277.266 161.023 277.266 161.58C277.266 162.152 277.353 162.653 277.528 163.085C277.702 163.517 277.96 163.854 278.3 164.097C278.645 164.339 279.069 164.46 279.573 164.46ZM287.505 160.818V166H285.806V154.364H287.482V158.693H287.59C287.795 158.223 288.107 157.85 288.528 157.574C288.948 157.297 289.497 157.159 290.175 157.159C290.774 157.159 291.297 157.282 291.744 157.528C292.194 157.775 292.543 158.142 292.789 158.631C293.039 159.116 293.164 159.722 293.164 160.449V166H291.465V160.653C291.465 160.013 291.3 159.517 290.971 159.165C290.641 158.809 290.183 158.631 289.596 158.631C289.194 158.631 288.835 158.716 288.516 158.886C288.202 159.057 287.954 159.307 287.772 159.636C287.594 159.962 287.505 160.356 287.505 160.818ZM299.505 157.273V158.636H294.738V157.273H299.505ZM296.016 155.182H297.715V163.438C297.715 163.767 297.764 164.015 297.863 164.182C297.961 164.345 298.088 164.456 298.244 164.517C298.403 164.574 298.575 164.602 298.761 164.602C298.897 164.602 299.016 164.593 299.119 164.574C299.221 164.555 299.3 164.54 299.357 164.528L299.664 165.932C299.566 165.97 299.425 166.008 299.244 166.045C299.062 166.087 298.835 166.11 298.562 166.114C298.115 166.121 297.698 166.042 297.312 165.875C296.925 165.708 296.613 165.451 296.374 165.102C296.136 164.754 296.016 164.316 296.016 163.79V155.182ZM305.052 166.176C304.192 166.176 303.451 165.992 302.83 165.625C302.213 165.254 301.736 164.733 301.398 164.062C301.065 163.388 300.898 162.598 300.898 161.693C300.898 160.799 301.065 160.011 301.398 159.33C301.736 158.648 302.205 158.116 302.808 157.733C303.414 157.35 304.122 157.159 304.933 157.159C305.425 157.159 305.902 157.241 306.364 157.403C306.826 157.566 307.241 157.822 307.609 158.17C307.976 158.519 308.266 158.972 308.478 159.528C308.69 160.081 308.796 160.754 308.796 161.545V162.148H301.859V160.875H307.131C307.131 160.428 307.04 160.032 306.859 159.688C306.677 159.339 306.421 159.064 306.092 158.864C305.766 158.663 305.383 158.562 304.944 158.562C304.467 158.562 304.05 158.68 303.694 158.915C303.342 159.146 303.069 159.449 302.876 159.824C302.686 160.195 302.592 160.598 302.592 161.034V162.028C302.592 162.612 302.694 163.108 302.898 163.517C303.107 163.926 303.397 164.239 303.768 164.455C304.139 164.667 304.573 164.773 305.069 164.773C305.391 164.773 305.684 164.727 305.95 164.636C306.215 164.542 306.444 164.402 306.637 164.216C306.83 164.03 306.978 163.801 307.08 163.528L308.688 163.818C308.559 164.292 308.328 164.706 307.995 165.062C307.665 165.415 307.251 165.689 306.751 165.886C306.254 166.08 305.688 166.176 305.052 166.176ZM310.681 166V157.273H312.323V158.659H312.414C312.573 158.189 312.853 157.82 313.255 157.551C313.66 157.278 314.119 157.142 314.63 157.142C314.736 157.142 314.861 157.146 315.005 157.153C315.153 157.161 315.268 157.17 315.352 157.182V158.807C315.283 158.788 315.162 158.767 314.988 158.744C314.814 158.718 314.639 158.705 314.465 158.705C314.064 158.705 313.706 158.79 313.391 158.96C313.081 159.127 312.835 159.36 312.653 159.659C312.471 159.955 312.38 160.292 312.38 160.67V166H310.681Z" fill="white"/>
<path fill-rule="evenodd" clip-rule="evenodd" d="M222.749 153.333C222.255 151.416 220.515 150 218.444 150C215.99 150 214 151.99 214 154.444C214 156.899 215.99 158.889 218.444 158.889C220.515 158.889 222.255 157.472 222.749 155.556H226.593V159.259H228.815V155.556H230.296V159.259H232.519V155.556H234V153.333H222.749ZM220.667 154.444C220.667 155.672 219.672 156.667 218.444 156.667C217.217 156.667 216.222 155.672 216.222 154.444C216.222 153.217 217.217 152.222 218.444 152.222C219.672 152.222 220.667 153.217 220.667 154.444Z" fill="url(#paint0_linear_761_5421)"/>
<path fill-rule="evenodd" clip-rule="evenodd" d="M225.251 166.667C225.745 168.584 227.485 170 229.556 170C232.01 170 234 168.01 234 165.556C234 163.101 232.01 161.111 229.556 161.111C227.485 161.111 225.745 162.528 225.251 164.444H221.407V160.741H219.185L219.185 164.444H217.704L217.704 160.741H215.481L215.481 164.444H214L214 166.667H225.251ZM227.333 165.556C227.333 164.328 228.328 163.333 229.556 163.333C230.783 163.333 231.778 164.328 231.778 165.556C231.778 166.783 230.783 167.778 229.556 167.778C228.328 167.778 227.333 166.783 227.333 165.556Z" fill="url(#paint1_linear_761_5421)"/>
<circle cx="224" cy="122" r="10" fill="#28282C"/>
<rect x="246" y="114" width="94" height="16" rx="2" fill="#28282C"/>
<rect x="246" y="190" width="94" height="16" rx="2" fill="#28282C"/>
<circle cx="224" cy="198" r="10" fill="#28282C"/>
<defs>
<linearGradient id="paint0_linear_761_5421" x1="234" y1="150" x2="214" y2="170" gradientUnits="userSpaceOnUse">
<stop stop-color="#CDADFF"/>
<stop offset="1" stop-color="#6432F1"/>
</linearGradient>
<linearGradient id="paint1_linear_761_5421" x1="234" y1="150" x2="214" y2="170" gradientUnits="userSpaceOnUse">
<stop stop-color="#CDADFF"/>
<stop offset="1" stop-color="#6432F1"/>
</linearGradient>
</defs>
</svg>
