<svg xmlns="http://www.w3.org/2000/svg" viewBox="0 0 158.93 116.91"><defs><style>.cls-1{fill:#64c3ff;}</style></defs><g id="Layer_2" data-name="Layer 2"><g id="Layer_1-2" data-name="Layer 1"><path class="cls-1" d="M114.87,49.18c3.43,0,8.47-2.36,8.47-8.07,0-4.63-3.3-8.11-10.59-8.11H92.05V19.81C92.05,12.68,91.63,0,83.34,0c-7.39,0-7,7.92-9,19S65.45,37,55.94,37H28.88v64.72H112c7.73,0,11.3-5.23,11.3-9.56,0-5.9-3.78-8.59-8.14-8.59,0,0,8.13-.91,8.13-9.31a8.59,8.59,0,0,0-8.17-8.69s8.26-1.13,8.26-7.86C123.37,50.39,114.87,49.18,114.87,49.18Z"/><rect x="112.51" y="47.86" width="5.04" height="2.53"/><rect x="112.51" y="64.2" width="5.04" height="2.53"/><rect x="112.51" y="82.14" width="5.04" height="2.53"/><path d="M152.62,97.66a6.31,6.31,0,1,1,6.31-6.31A6.32,6.32,0,0,1,152.62,97.66Zm0-10.09a3.78,3.78,0,1,0,3.78,3.78A3.78,3.78,0,0,0,152.62,87.57Z"/><path d="M51.53,29.82V27.29a12.91,12.91,0,0,0,9.68-3.8c5.52-5.72,5.23-16,5.22-16.15L69,7.25c0,.47.35,11.49-5.92,18A15.34,15.34,0,0,1,51.53,29.82Z"/><rect x="129.91" y="110.26" width="12.68" height="2.53" transform="translate(-38.95 129.06) rotate(-45.02)"/><rect x="134.98" y="105.19" width="2.53" height="12.68" transform="translate(-38.96 129) rotate(-45)"/><path d="M6.31,42.78a6.31,6.31,0,1,1,6.31-6.31A6.32,6.32,0,0,1,6.31,42.78Zm0-10.09a3.78,3.78,0,1,0,3.78,3.78A3.79,3.79,0,0,0,6.31,32.69Z"/><rect x="12.94" y="11.66" width="12.68" height="2.53" transform="translate(-3.49 17.42) rotate(-45.02)"/><rect x="18.01" y="6.58" width="2.53" height="12.68" transform="translate(-3.49 17.41) rotate(-45)"/><rect x="70.99" y="93.07" width="27.3" height="2.53"/></g></g></svg>