<svg xmlns="http://www.w3.org/2000/svg" viewBox="0 0 162.69 159.8"><defs><style>.cls-1{fill:#4023de;}.cls-2{fill:#88a2f5;}.cls-3{fill:#60dbd9;}.cls-4{fill:#fff;}.cls-5{fill:#ffc900;}.cls-6{fill:#ff8978;}.cls-7{fill:#64c3ff;}</style></defs><g id="Layer_2" data-name="Layer 2"><g id="Layer_1-2" data-name="Layer 1"><rect class="cls-1" x="11.22" y="0.08" width="114.02" height="140.2" transform="translate(-0.1 0.1) rotate(-0.08)"/><rect y="67.93" width="2.53" height="57.63"/><circle class="cls-2" cx="66.26" cy="30.84" r="8.82"/><rect class="cls-3" x="28.54" y="27.27" width="18.4" height="7.15"/><rect class="cls-4" x="55.34" y="56.03" width="22.14" height="2.38" transform="translate(-21.01 63.72) rotate(-45)"/><rect class="cls-4" x="65.22" y="46.15" width="2.38" height="22.14" transform="translate(-21.01 63.72) rotate(-45)"/><polyline class="cls-5" points="107.64 23 107.64 38.9 81.3 38.9"/><path class="cls-3" d="M106.87,52.65a11.29,11.29,0,0,1-22.58,0"/><polygon class="cls-6" points="38.5 48.98 27.36 65.58 49.61 65.58 38.5 48.98"/><circle class="cls-5" cx="68.75" cy="83.99" r="8.82"/><rect class="cls-4" x="88.06" y="80.42" width="18.4" height="7.14"/><rect class="cls-3" x="67.4" y="100.61" width="2.38" height="22.14" transform="translate(-58.87 81.21) rotate(-45)"/><rect class="cls-3" x="57.53" y="110.48" width="22.14" height="2.38" transform="translate(-58.88 81.25) rotate(-45.02)"/><polyline class="cls-2" points="27.36 76.14 27.36 92.05 53.7 92.05"/><path class="cls-4" d="M28.13,107.11a11.3,11.3,0,0,0,22.59,0"/><path class="cls-7" d="M161.13,107.39h-7.91l0-16.28a27.67,27.67,0,0,0-27.6-27.57h0A27.67,27.67,0,0,0,98,91.2l0,16.28H90.47l.07,52.31,70.67-.1ZM107.39,91.18A18.27,18.27,0,0,1,125.56,73h0a18.28,18.28,0,0,1,18.2,18.18l0,16.29-36.41,0Z"/><rect x="98.78" y="150.07" width="24.37" height="2.19" transform="translate(-0.27 0.2) rotate(-0.1)"/><path d="M160.16,86.54a26.52,26.52,0,0,0-6.47-17.23,22.17,22.17,0,0,0-6.15-5L148.63,62c.56.26,13.53,6.69,14.06,24.44Z"/></g></g></svg>