<svg width="16" height="16" viewBox="0 0 16 16" fill="none" xmlns="http://www.w3.org/2000/svg">
<path d="M14.9195 0L16 1.08189L14.6837 2.39806C15.1294 2.66543 15.4314 3.14928 15.4314 3.70528V12.8737C15.4314 13.7164 14.746 14.4018 13.9032 14.4018H2.67885L1.0805 16L0 14.9196L0.798433 14.1198H0.799926L2.04459 12.8737L14.9195 0ZM10.5811 2.17721L9.05289 3.70528H1.67746L1.67895 11.0785L0.14924 12.6081V3.70528C0.14924 2.86255 0.834644 2.17721 1.67746 2.17721H10.5811ZM13.9032 3.70528H13.3764L7.59481 9.48629L8.55443 10.5816L10.4647 8.67152L12.5451 11.3456H5.73529L4.20707 12.8737H13.9032V3.70528ZM3.96978 5.23335C4.17243 5.23335 4.36679 5.31385 4.51009 5.45713C4.65338 5.60042 4.73389 5.79475 4.73389 5.99739C4.73389 6.20002 4.65338 6.39436 4.51009 6.53764C4.36679 6.68093 4.17243 6.76143 3.96978 6.76143C3.76713 6.76143 3.57277 6.68093 3.42947 6.53764C3.28617 6.39436 3.20567 6.20002 3.20567 5.99739C3.20567 5.79475 3.28617 5.60042 3.42947 5.45713C3.57277 5.31385 3.76713 5.23335 3.96978 5.23335Z" fill="white" fill-opacity="0.4"/>
</svg>
