<svg width="17" height="17" viewBox="0 0 17 17" fill="none" xmlns="http://www.w3.org/2000/svg">
<path d="M8.48617 0.000101165C8.23584 0.00376682 7.99722 0.106583 7.82272 0.285958C7.64823 0.465333 7.55213 0.706593 7.55556 0.956726V10.0032L6.33442 8.78298C6.2463 8.69247 6.14089 8.62054 6.02445 8.57147C5.90801 8.5224 5.7829 8.49717 5.65652 8.49729C5.46872 8.49752 5.28525 8.55369 5.12955 8.65862C4.97385 8.76355 4.85299 8.91248 4.7824 9.08638C4.71182 9.26028 4.69472 9.45126 4.73328 9.63492C4.77185 9.81858 4.86433 9.98658 4.99891 10.1175L7.83225 12.9486C8.00937 13.1255 8.24956 13.2249 8.5 13.2249C8.75044 13.2249 8.99063 13.1255 9.16775 12.9486L12.0011 10.1175C12.0917 10.0305 12.1641 9.92635 12.2139 9.81109C12.2638 9.69584 12.2901 9.5718 12.2914 9.44625C12.2927 9.32069 12.2689 9.19615 12.2214 9.0799C12.1739 8.96365 12.1037 8.85805 12.0148 8.76926C11.926 8.68048 11.8203 8.6103 11.7039 8.56284C11.5876 8.51538 11.463 8.4916 11.3373 8.49287C11.2117 8.49415 11.0875 8.52047 10.9722 8.57028C10.8568 8.6201 10.7526 8.69241 10.6656 8.78298L9.44444 10.0032V0.956726C9.44617 0.830544 9.42256 0.705298 9.375 0.588395C9.32744 0.471492 9.2569 0.365305 9.16756 0.276116C9.07822 0.186927 8.97188 0.116547 8.85485 0.0691377C8.73781 0.0217287 8.61244 -0.00174638 8.48617 0.000101165ZM2.83333 5.20347C1.27971 5.20347 0 6.4822 0 8.03464V14.1688C0 15.7213 1.27971 17 2.83333 17H14.1667C15.7203 17 17 15.7213 17 14.1688V8.03464C17 6.4822 15.7203 5.20347 14.1667 5.20347H12.75C12.6248 5.20171 12.5006 5.22481 12.3845 5.27144C12.2683 5.31808 12.1626 5.38731 12.0735 5.47512C11.9844 5.56292 11.9136 5.66756 11.8653 5.78293C11.817 5.89831 11.7921 6.02213 11.7921 6.1472C11.7921 6.27226 11.817 6.39608 11.8653 6.51146C11.9136 6.62684 11.9844 6.73147 12.0735 6.81928C12.1626 6.90709 12.2683 6.97632 12.3845 7.02295C12.5006 7.06958 12.6248 7.09269 12.75 7.09092H14.1667C14.6993 7.09092 15.1111 7.5024 15.1111 8.03464V14.1688C15.1111 14.7011 14.6993 15.1126 14.1667 15.1126H2.83333C2.30068 15.1126 1.88889 14.7011 1.88889 14.1688V8.03464C1.88889 7.5024 2.30068 7.09092 2.83333 7.09092H4.25C4.37515 7.09269 4.4994 7.06958 4.61554 7.02295C4.73168 6.97632 4.83738 6.90709 4.92651 6.81928C5.01563 6.73147 5.08641 6.62684 5.13471 6.51146C5.18302 6.39608 5.2079 6.27226 5.2079 6.1472C5.2079 6.02213 5.18302 5.89831 5.13471 5.78293C5.08641 5.66756 5.01563 5.56292 4.92651 5.47512C4.83738 5.38731 4.73168 5.31808 4.61554 5.27144C4.4994 5.22481 4.37515 5.20171 4.25 5.20347H2.83333Z" fill="#351FD2"/>
</svg>
