<svg width="56" height="56" viewBox="0 0 56 56" fill="none" xmlns="http://www.w3.org/2000/svg">
<g id="Logo">
<g id="Rectangle">
<rect width="56" height="56" rx="14" fill="#533ABB"/>
<rect x="0.0972222" y="0.0972222" width="55.8056" height="55.8056" rx="13.9028" stroke="white" stroke-opacity="0.16" stroke-width="0.194444"/>
</g>
<g id="Vector">
<path fill-rule="evenodd" clip-rule="evenodd" d="M26.2484 18.6667C25.5577 15.983 23.1215 14 20.2222 14C16.7858 14 14 16.7858 14 20.2222C14 23.6587 16.7858 26.4444 20.2222 26.4444C23.1215 26.4444 25.5577 24.4615 26.2484 21.7778H31.6296V26.963H34.7407V21.7778H36.8148V26.963H39.9259V21.7778H42V18.6667H26.2484ZM23.3333 20.2222C23.3333 21.9404 21.9404 23.3333 20.2222 23.3333C18.504 23.3333 17.1111 21.9404 17.1111 20.2222C17.1111 18.504 18.504 17.1111 20.2222 17.1111C21.9404 17.1111 23.3333 18.504 23.3333 20.2222Z" fill="white"/>
<path fill-rule="evenodd" clip-rule="evenodd" d="M29.7516 37.3333C30.4423 40.017 32.8785 42 35.7778 42C39.2142 42 42 39.2142 42 35.7778C42 32.3413 39.2142 29.5556 35.7778 29.5556C32.8785 29.5556 30.4423 31.5385 29.7516 34.2222H24.3704V29.037H21.2593L21.2593 34.2222H19.1852L19.1852 29.037H16.0741L16.0741 34.2222H14L14 37.3333H29.7516ZM32.6667 35.7778C32.6667 34.0596 34.0596 32.6667 35.7778 32.6667C37.496 32.6667 38.8889 34.0596 38.8889 35.7778C38.8889 37.496 37.496 38.8889 35.7778 38.8889C34.0596 38.8889 32.6667 37.496 32.6667 35.7778Z" fill="white"/>
</g>
</g>
</svg>
