<svg width="126" height="50" viewBox="0 0 126 50" fill="none" xmlns="http://www.w3.org/2000/svg">
<path d="M49.2462 32.322H46.7756V17.7252H55.8549V20.0517H49.2462V24.1486H55.1755V26.4339H49.2462V32.322Z" fill="white"/>
<path d="M62.7602 22.2338V24.6631C62.4855 24.6219 62.2248 24.6014 61.9778 24.6014C60.1795 24.6014 59.2808 25.5828 59.2808 27.5454V32.3218H56.8926V22.2955H59.219V23.9013C59.4522 23.366 59.8296 22.944 60.3513 22.6352C60.8727 22.3263 61.4631 22.172 62.1219 22.172C62.3413 22.172 62.5543 22.1926 62.7602 22.2338Z" fill="white"/>
<path d="M71.0444 28.822L73.0621 29.4601C72.7737 30.3798 72.235 31.1381 71.4458 31.7351C70.6565 32.3321 69.6856 32.6306 68.5326 32.6306C67.1049 32.6306 65.8939 32.1436 64.8988 31.1688C63.9035 30.1945 63.4062 28.8907 63.4062 27.2571C63.4062 25.7201 63.89 24.4572 64.8576 23.469C65.8253 22.4807 66.968 21.9866 68.2856 21.9866C69.8226 21.9866 71.0238 22.4569 71.8884 23.3969C72.7531 24.3371 73.1855 25.6033 73.1855 27.1953C73.1855 27.6208 73.1649 27.8747 73.1237 27.957H65.7944C65.8218 28.7121 66.0997 29.3364 66.6283 29.8306C67.1565 30.3247 67.7915 30.5717 68.5327 30.5717C69.8226 30.5719 70.66 29.9887 71.0444 28.822ZM65.8562 26.2072H70.7767C70.7491 25.5762 70.5261 25.0476 70.1076 24.622C69.6888 24.1967 69.0886 23.9837 68.3063 23.9837C67.5925 23.9837 67.016 24.207 66.5768 24.6528C66.1374 25.0991 65.8974 25.6173 65.8562 26.2072Z" fill="white"/>
<path d="M74.9662 19.8663C74.6641 19.5645 74.5132 19.2007 74.5132 18.7751C74.5132 18.3498 74.6641 17.9825 74.9662 17.6737C75.2679 17.3648 75.6318 17.2104 76.0573 17.2104C76.4964 17.2104 76.8669 17.3617 77.169 17.6634C77.4708 17.9655 77.622 18.3361 77.622 18.7752C77.622 19.2008 77.4708 19.5646 77.169 19.8664C76.8669 20.1684 76.4964 20.3194 76.0573 20.3194C75.6318 20.3193 75.2679 20.1684 74.9662 19.8663ZM77.2514 32.322H74.8838V22.2957H77.2514V32.322Z" fill="white"/>
<path d="M78.9395 32.8778L81.1424 32.3014C81.2247 32.9325 81.4956 33.4507 81.9556 33.8558C82.4153 34.2605 82.9815 34.4633 83.6541 34.4633C85.5482 34.4633 86.4953 33.4612 86.4953 31.4574V30.4074C86.2617 30.833 85.891 31.183 85.3835 31.4574C84.8755 31.732 84.2785 31.8691 83.5923 31.8691C82.2471 31.8691 81.1389 31.4095 80.2674 30.4898C79.3957 29.5705 78.96 28.4037 78.96 26.9898C78.96 25.631 79.3924 24.4781 80.2572 23.531C81.1218 22.584 82.2336 22.1105 83.5923 22.1105C85.0609 22.1105 86.0491 22.5978 86.5569 23.5722V22.2957H88.8629V31.375C88.8629 32.8573 88.444 34.0891 87.6069 35.0706C86.7696 36.0518 85.4726 36.5426 83.7158 36.5426C82.4255 36.5426 81.3412 36.1926 80.4629 35.4926C79.5844 34.7925 79.0764 33.9208 78.9395 32.8778ZM83.9835 29.8309C84.752 29.8309 85.3732 29.5735 85.8468 29.0588C86.3202 28.5441 86.5569 27.8545 86.5569 26.9898C86.5569 26.1389 86.3166 25.4561 85.8364 24.9413C85.3558 24.4267 84.7381 24.1693 83.9835 24.1693C83.2146 24.1693 82.5867 24.4267 82.0997 24.9413C81.6122 25.456 81.3688 26.1389 81.3688 26.9898C81.3688 27.8545 81.6088 28.5442 82.0894 29.0588C82.5696 29.5735 83.2012 29.8309 83.9835 29.8309Z" fill="white"/>
<path d="M93.532 26.4338V32.3219H91.1438V17.4163H93.532V23.2632C94.177 22.4262 95.1308 22.0074 96.3937 22.0074C97.574 22.0074 98.4798 22.3779 99.1112 23.1191C99.7424 23.8602 100.058 24.8144 100.058 25.9808V32.3219H97.6702V26.3926C97.6702 25.7203 97.5054 25.1814 97.176 24.7765C96.8467 24.3718 96.3248 24.1691 95.6114 24.1691C94.9799 24.1691 94.4823 24.3821 94.1187 24.8073C93.7548 25.233 93.5593 25.775 93.532 26.4338Z" fill="white"/>
<path d="M105.335 19.228V22.2957H107.414V24.4162H105.335V29.0691C105.335 29.5085 105.438 29.8277 105.644 30.0264C105.85 30.2254 106.172 30.325 106.611 30.325C106.886 30.325 107.16 30.2976 107.435 30.2426V32.2191C107.078 32.37 106.591 32.4456 105.973 32.4456C105.039 32.4456 104.305 32.1815 103.77 31.6529C103.235 31.1247 102.967 30.3938 102.967 29.4603V24.4163H101.114V22.2958H101.629C102.137 22.2958 102.521 22.1516 102.782 21.8634C103.042 21.5751 103.173 21.1978 103.173 20.731V19.2281H105.335V19.228Z" fill="white"/>
<path d="M115.867 28.822L117.885 29.4601C117.597 30.3798 117.058 31.1381 116.269 31.7351C115.479 32.3321 114.509 32.6306 113.356 32.6306C111.928 32.6306 110.717 32.1436 109.722 31.1688C108.727 30.1945 108.229 28.8907 108.229 27.2571C108.229 25.7201 108.713 24.4572 109.681 23.469C110.648 22.4807 111.791 21.9866 113.109 21.9866C114.646 21.9866 115.847 22.4569 116.711 23.3969C117.576 24.3371 118.008 25.6033 118.008 27.1953C118.008 27.6208 117.988 27.8747 117.947 27.957H110.617C110.645 28.7121 110.923 29.3364 111.451 29.8306C111.98 30.3247 112.614 30.5717 113.356 30.5717C114.646 30.5719 115.483 29.9887 115.867 28.822ZM110.679 26.2072H115.6C115.572 25.5762 115.349 25.0476 114.931 24.622C114.512 24.1967 113.912 23.9837 113.129 23.9837C112.415 23.9837 111.839 24.207 111.4 24.6528C110.96 25.0991 110.72 25.6173 110.679 26.2072Z" fill="white"/>
<path d="M125.649 22.2338V24.6631C125.374 24.6219 125.113 24.6014 124.866 24.6014C123.068 24.6014 122.169 25.5828 122.169 27.5454V32.3218H119.781V22.2955H122.107V23.9013C122.341 23.366 122.718 22.944 123.24 22.6352C123.761 22.3263 124.352 22.172 125.01 22.172C125.23 22.172 125.443 22.1926 125.649 22.2338Z" fill="white"/>
<path d="M29.5467 45.3624C28.9086 45.3624 28.2002 45.3231 27.4129 45.237C23.7367 44.8347 19.2392 43.4873 14.7491 41.4431C10.259 39.3988 6.28962 36.8915 3.57235 34.3829C-0.234977 30.8681 -0.322844 28.5678 0.273952 27.2569C0.870649 25.946 2.66315 24.5021 7.8143 25.0655C11.4905 25.4677 15.9879 26.8151 20.4781 28.8594C24.9683 30.9038 28.9376 33.411 31.6548 35.9196C35.4622 39.4344 35.5499 41.7347 34.9532 43.0456C34.4477 44.1561 33.0836 45.3624 29.5467 45.3624ZM5.70779 26.8474C3.65399 26.8474 2.34341 27.2948 2.00238 28.0438C1.54658 29.045 2.64176 30.9392 4.86054 32.9875C7.43341 35.3626 11.2247 37.7517 15.536 39.7147C25.2084 44.1182 32.3574 44.1643 33.2249 42.2586C34.0924 40.353 29.3635 34.9913 19.6913 30.5877C13.8209 27.9152 8.87895 26.8474 5.70779 26.8474Z" fill="white"/>
<path d="M19.6525 24.9212V19.0595H24.9686V12.8783H19.6525V10.5287H28.1054V4.34739H19.6525V0H13.4712V24.9212C7.97544 26.3065 3.88965 31.2768 3.88965 37.1976C3.88965 44.1852 9.57433 49.8698 16.5619 49.8698C23.5506 49.8698 29.2354 44.1852 29.2354 37.1976C29.2354 31.2769 25.1494 26.3063 19.6525 24.9212ZM16.5619 43.6886C12.9824 43.6886 10.0709 40.7771 10.0709 37.1976C10.0709 33.6181 12.9824 30.7054 16.5619 30.7054C20.1413 30.7054 23.0541 33.6181 23.0541 37.1976C23.0541 40.7771 20.1413 43.6886 16.5619 43.6886Z" fill="url(#paint0_linear)"/>
<path d="M29.5334 45.3655C28.2052 45.3655 26.6662 45.1944 24.9365 44.8483C21.775 44.2155 18.2524 43.0381 14.7492 41.4432C11.7922 40.0971 8.99846 38.5142 6.67022 36.8657C1.49397 33.2007 -0.837389 29.6986 0.274161 27.2571L2.00259 28.044C1.47358 29.2058 3.05208 31.977 7.76761 35.3158C9.99985 36.8962 12.6862 38.4174 15.5361 39.7149C18.9087 41.2503 22.2883 42.3816 25.3092 42.9862C30.1111 43.9469 32.7449 43.3133 33.2251 42.2588L34.9534 43.0457C34.2549 44.5797 32.3788 45.3655 29.5334 45.3655Z" fill="white"/>
<defs>
<linearGradient id="paint0_linear" x1="16.5625" y1="-0.672263" x2="16.5625" y2="49.9125" gradientUnits="userSpaceOnUse">
<stop stop-color="#A7A7F4"/>
<stop offset="1" stop-color="#6868F1"/>
</linearGradient>
</defs>
</svg>
