<svg fill="none" xmlns="http://www.w3.org/2000/svg" viewBox="0 0 138 55"><path d="M54.087 35.5h-2.713V19.467h9.972v2.555h-7.259v4.5H60.6v2.51h-6.512v6.466zM68.93 24.42v2.667a5.81 5.81 0 00-.86-.067c-1.975 0-2.962 1.078-2.962 3.233v5.246h-2.623V24.487h2.555v1.764a2.96 2.96 0 011.244-1.39c.573-.34 1.221-.51 1.945-.51.24 0 .475.023.7.068zM78.028 31.655l2.216.701a4.912 4.912 0 01-1.775 2.499c-.867.655-1.933.983-3.2.983-1.568 0-2.898-.535-3.99-1.605-1.094-1.07-1.64-2.502-1.64-4.296 0-1.689.531-3.076 1.594-4.161 1.063-1.085 2.318-1.628 3.765-1.628 1.688 0 3.008.516 3.957 1.549.95 1.032 1.425 2.423 1.425 4.172 0 .467-.023.746-.068.836h-8.05c.03.83.335 1.515.916 2.058.58.543 1.278.814 2.092.814 1.416 0 2.336-.64 2.758-1.922zm-5.698-2.872h5.404c-.03-.693-.275-1.273-.735-1.74-.46-.468-1.119-.702-1.978-.702-.784 0-1.417.245-1.9.735-.482.49-.746 1.06-.791 1.707zM82.335 21.82a1.633 1.633 0 01-.497-1.2c0-.466.166-.87.497-1.209.332-.34.731-.509 1.199-.509.482 0 .889.166 1.22.498.332.332.498.739.498 1.22 0 .468-.166.868-.497 1.2a1.66 1.66 0 01-1.221.497c-.468 0-.867-.166-1.199-.498zm2.51 13.68h-2.6V24.486h2.6V35.5zM86.7 36.11l2.419-.633c.09.693.388 1.262.893 1.707.505.444 1.127.667 1.865.667 2.08 0 3.121-1.1 3.121-3.301v-1.153c-.257.467-.664.851-1.221 1.153-.558.301-1.214.452-1.967.452-1.478 0-2.695-.505-3.652-1.515-.957-1.01-1.436-2.291-1.436-3.844 0-1.492.475-2.759 1.425-3.799.95-1.04 2.17-1.56 3.663-1.56 1.613 0 2.698.535 3.256 1.605v-1.402h2.532v9.972c0 1.628-.46 2.981-1.379 4.06-.92 1.077-2.344 1.616-4.274 1.616-1.417 0-2.608-.385-3.572-1.154-.965-.768-1.523-1.726-1.674-2.871zm5.54-3.347c.843 0 1.526-.282 2.046-.848.52-.565.78-1.322.78-2.272 0-.935-.264-1.685-.792-2.25s-1.206-.848-2.035-.848c-.844 0-1.534.283-2.069.848-.535.565-.802 1.315-.802 2.25 0 .95.263 1.707.791 2.272.527.566 1.221.848 2.08.848zM102.726 29.032V35.5h-2.622V19.13h2.622v6.42c.709-.918 1.756-1.378 3.143-1.378 1.297 0 2.292.407 2.985 1.22.693.815 1.04 1.863 1.04 3.144v6.964h-2.623v-6.512c0-.738-.181-1.33-.542-1.775-.362-.445-.935-.667-1.719-.667-.693 0-1.24.234-1.639.7-.4.468-.615 1.064-.645 1.787zM115.689 21.118v3.37h2.284v2.328h-2.284v5.11c0 .483.113.834.34 1.052.226.218.58.328 1.062.328.302 0 .603-.03.905-.09v2.17c-.392.166-.927.249-1.606.249-1.025 0-1.831-.29-2.419-.87-.588-.58-.882-1.383-.882-2.409v-5.54h-2.035v-2.329h.565c.558 0 .98-.158 1.266-.475.287-.316.43-.73.43-1.243v-1.65h2.374v-.001zM127.257 31.655l2.216.701c-.316 1.01-.908 1.843-1.775 2.499-.867.655-1.933.983-3.199.983-1.568 0-2.898-.535-3.991-1.605-1.093-1.07-1.64-2.502-1.64-4.296 0-1.689.532-3.076 1.594-4.161 1.063-1.085 2.318-1.628 3.765-1.628 1.688 0 3.008.516 3.957 1.549.95 1.032 1.425 2.423 1.425 4.172 0 .467-.023.746-.068.836h-8.05c.03.83.336 1.515.916 2.058.58.543 1.278.814 2.092.814 1.416 0 2.336-.64 2.758-1.922zm-5.698-2.872h5.404c-.03-.693-.275-1.273-.735-1.74-.459-.468-1.119-.702-1.978-.702-.784 0-1.417.245-1.899.735-.483.49-.747 1.06-.792 1.707zM138 24.42v2.667a5.81 5.81 0 00-.859-.067c-1.975 0-2.962 1.078-2.962 3.233v5.246h-2.623V24.487h2.555v1.764a2.959 2.959 0 011.243-1.39c.573-.34 1.221-.51 1.945-.51.241 0 .475.023.701.068zM32.451 49.822c-.7 0-1.479-.044-2.343-.138-4.038-.442-8.978-1.922-13.909-4.167-4.932-2.245-9.291-4.999-12.275-7.754C-.258 33.903-.355 31.376.3 29.936c.655-1.44 2.624-3.025 8.281-2.407 4.038.442 8.977 1.922 13.91 4.167 4.93 2.246 9.29 5 12.275 7.754 4.181 3.86 4.278 6.387 3.622 7.827-.555 1.22-2.053 2.545-5.938 2.545zM6.27 29.487c-2.256 0-3.695.49-4.07 1.314-.5 1.1.702 3.18 3.14 5.43 2.825 2.608 6.99 5.232 11.724 7.388 10.623 4.836 18.475 4.887 19.428 2.794.953-2.093-4.241-7.982-14.864-12.819-6.447-2.935-11.875-4.107-15.358-4.107z" fill="#fff"/><path d="M21.584 27.371v-6.438h5.84v-6.789h-5.84v-2.58h9.284v-6.79h-9.284V0h-6.789v27.371C8.76 28.892 4.272 34.351 4.272 40.854c0 7.675 6.243 13.918 13.918 13.918 7.676 0 13.92-6.243 13.92-13.918 0-6.503-4.488-11.962-10.526-13.483zM18.19 47.983a7.136 7.136 0 01-7.13-7.129c0-3.931 3.198-7.13 7.13-7.13 3.931 0 7.13 3.199 7.13 7.13 0 3.932-3.199 7.13-7.13 7.13z" fill="url(#paint0_linear)"/><path d="M32.437 49.825c-1.46 0-3.15-.188-5.05-.568-3.471-.695-7.34-1.988-11.188-3.74-3.248-1.478-6.316-3.217-8.873-5.027C1.64 36.464-.92 32.618.3 29.936l1.898.865c-.58 1.276 1.153 4.32 6.332 7.986 2.452 1.736 5.402 3.407 8.532 4.832 3.704 1.686 7.416 2.929 10.734 3.593 5.274 1.055 8.167.36 8.694-.799l1.898.864c-.767 1.685-2.827 2.548-5.952 2.548z" fill="#fff"/><path opacity=".5" d="M115.858 48v-8.096h.891v3.982l-.121-.11c.125-.455.363-.807.715-1.056.352-.257.777-.385 1.276-.385.491 0 .92.117 1.287.352.367.235.653.565.858.99.213.425.319.928.319 1.507 0 .58-.106 1.089-.319 1.529-.205.433-.495.77-.869 1.012a2.316 2.316 0 01-1.276.352c-.499 0-.924-.125-1.276-.374-.352-.25-.59-.605-.715-1.067l.121-.121V48h-.891zm2.596-.66c.535 0 .953-.187 1.254-.561.301-.381.451-.913.451-1.595 0-.667-.15-1.184-.451-1.551-.301-.367-.719-.55-1.254-.55-.55 0-.972.187-1.265.561-.293.367-.44.887-.44 1.562 0 .682.147 1.21.44 1.584.293.367.715.55 1.265.55zm8.532 0a2.577 2.577 0 01-.935.539 3.446 3.446 0 01-1.155.198c-.572 0-1.067-.114-1.485-.341a2.365 2.365 0 01-.957-.979c-.22-.433-.33-.946-.33-1.54 0-.572.11-1.074.33-1.507.22-.433.524-.77.913-1.012.396-.242.85-.363 1.364-.363.491 0 .913.11 1.265.33.352.213.619.52.803.924.19.403.286.887.286 1.452v.165h-4.18v-.583h3.674l-.286.407c.014-.645-.114-1.14-.385-1.485-.264-.345-.653-.517-1.166-.517-.536 0-.957.19-1.265.572-.301.374-.451.895-.451 1.562 0 .719.157 1.261.473 1.628.322.367.792.55 1.408.55.322 0 .63-.051.924-.154.3-.11.586-.275.858-.495l.297.649zm.638-4.169v-.704h3.553v.704h-3.553zm3.531 4.037v.759a2.26 2.26 0 01-.374.077 2.154 2.154 0 01-.396.033c-.513 0-.924-.147-1.232-.44-.301-.293-.451-.733-.451-1.32v-5.269l.891-.319v5.467c0 .293.04.52.121.682a.75.75 0 00.352.341c.147.059.312.088.495.088.11 0 .209-.007.297-.022s.187-.04.297-.077zm3.219.869c-.492 0-.924-.114-1.298-.341a2.36 2.36 0 01-.858-.99c-.198-.433-.297-.939-.297-1.518 0-.58.102-1.085.308-1.518.205-.433.491-.77.858-1.012a2.316 2.316 0 011.287-.363c.506 0 .935.125 1.287.374.352.25.59.605.715 1.067l-.132.088v-1.397h.88V48h-.88v-1.43l.132.066c-.125.462-.363.818-.715 1.067-.352.25-.781.374-1.287.374zm.176-.737c.542 0 .96-.183 1.254-.55.293-.374.44-.902.44-1.584s-.151-1.206-.451-1.573c-.294-.367-.708-.55-1.243-.55-.543 0-.968.19-1.276.572-.301.374-.451.898-.451 1.573 0 .675.15 1.195.451 1.562.308.367.733.55 1.276.55z" fill="#fff"/><defs><linearGradient id="paint0_linear" x1="18.191" y1="-.738" x2="18.191" y2="54.819" gradientUnits="userSpaceOnUse"><stop stop-color="#A7A7F4"/><stop offset="1" stop-color="#6868F1"/></linearGradient></defs></svg>