<svg width="114" height="30" viewBox="0 0 114 30" fill="none" xmlns="http://www.w3.org/2000/svg">
<g opacity="0.9">
<path d="M41.5352 21.5613V13.8414H39V11.7932H41.5352V9.9814C41.5352 9.31182 41.7364 8.78009 42.1388 8.38621C42.5547 7.97921 43.0912 7.77571 43.7485 7.77571H46.3642V9.82385H44.6338C44.2582 9.82385 44.0704 10.0208 44.0704 10.4147V11.7932H46.6861V13.8414H44.0704V21.5613H41.5352Z" fill="white"/>
<path d="M47.0392 21.5613V11.7932H49.5342V12.8961H49.8963C50.0439 12.5022 50.2853 12.2133 50.6207 12.0295C50.9694 11.8457 51.3719 11.7538 51.8279 11.7538H53.0352V13.9595H51.7877C51.1438 13.9595 50.614 14.1302 50.1981 14.4716C49.7823 14.7998 49.5744 15.3118 49.5744 16.0077V21.5613H47.0392Z" fill="white"/>
<path d="M57.6007 21.837C56.6081 21.837 55.7295 21.6335 54.9649 21.2265C54.2137 20.8063 53.6235 20.2221 53.1943 19.4737C52.7784 18.7123 52.5705 17.8195 52.5705 16.7954V16.5591C52.5705 15.535 52.7784 14.6488 53.1943 13.9004C53.6101 13.139 54.1936 12.5547 54.9448 12.1477C55.6959 11.7276 56.5678 11.5175 57.5605 11.5175C58.5397 11.5175 59.3915 11.7341 60.1158 12.1674C60.8401 12.5875 61.4035 13.1783 61.8059 13.9398C62.2084 14.6882 62.4096 15.5613 62.4096 16.5591V17.4059H55.146C55.1728 18.0755 55.4277 18.6204 55.9106 19.0405C56.3935 19.4606 56.9837 19.6707 57.6812 19.6707C58.3921 19.6707 58.9153 19.5197 59.2506 19.2177C59.586 18.9158 59.8408 18.581 60.0152 18.2133L62.0876 19.2768C61.8998 19.6182 61.6249 19.9923 61.2627 20.3993C60.9139 20.7932 60.4444 21.1346 59.8542 21.4234C59.264 21.6991 58.5128 21.837 57.6007 21.837ZM55.1661 15.5547H59.8341C59.7805 14.9902 59.5457 14.5372 59.1299 14.1958C58.7275 13.8545 58.1976 13.6838 57.5403 13.6838C56.8562 13.6838 56.313 13.8545 55.9106 14.1958C55.5081 14.5372 55.26 14.9902 55.1661 15.5547Z" fill="white"/>
<path d="M63.0564 21.5613V11.7932H65.5916V21.5613H63.0564ZM64.324 10.651C63.868 10.651 63.479 10.5066 63.157 10.2177C62.8485 9.92888 62.6942 9.54814 62.6942 9.07549C62.6942 8.60285 62.8485 8.2221 63.157 7.93326C63.479 7.64442 63.868 7.5 64.324 7.5C64.7935 7.5 65.1825 7.64442 65.491 7.93326C65.7996 8.2221 65.9538 8.60285 65.9538 9.07549C65.9538 9.54814 65.7996 9.92888 65.491 10.2177C65.1825 10.5066 64.7935 10.651 64.324 10.651Z" fill="white"/>
<path d="M66.3084 16.7166V16.4015C66.3084 15.3775 66.5164 14.5044 66.9322 13.7823C67.348 13.047 67.898 12.4891 68.5821 12.1083C69.2796 11.7144 70.0375 11.5175 70.8557 11.5175C71.7679 11.5175 72.4587 11.6751 72.9282 11.9902C73.3977 12.3053 73.7397 12.6335 73.9543 12.9748H74.3165V11.7932H76.8115V23.2943C76.8115 23.9639 76.6103 24.4956 76.2079 24.8895C75.8054 25.2965 75.2689 25.5 74.5982 25.5H67.9181V23.3337H73.7129C74.0885 23.3337 74.2763 23.1368 74.2763 22.7429V20.2024H73.9141C73.7799 20.4125 73.5922 20.6291 73.3507 20.8523C73.1093 21.0624 72.7873 21.2396 72.3849 21.384C71.9825 21.5284 71.4728 21.6007 70.8557 21.6007C70.0375 21.6007 69.2796 21.4103 68.5821 21.0295C67.898 20.6357 67.348 20.0777 66.9322 19.3556C66.5164 18.6204 66.3084 17.7407 66.3084 16.7166ZM71.5801 19.4344C72.3581 19.4344 73.0087 19.1915 73.5318 18.7057C74.0549 18.2199 74.3165 17.5372 74.3165 16.6576V16.4606C74.3165 15.5678 74.0549 14.8851 73.5318 14.4125C73.0221 13.9267 72.3715 13.6838 71.5801 13.6838C70.8021 13.6838 70.1515 13.9267 69.6284 14.4125C69.1052 14.8851 68.8437 15.5678 68.8437 16.4606V16.6576C68.8437 17.5372 69.1052 18.2199 69.6284 18.7057C70.1515 19.1915 70.8021 19.4344 71.5801 19.4344Z" fill="white"/>
<path d="M78.0126 21.5613V7.77571H80.5478V12.9945H80.91C81.0173 12.7845 81.185 12.5744 81.413 12.3643C81.641 12.1543 81.9429 11.9836 82.3184 11.8523C82.7074 11.7079 83.197 11.6357 83.7873 11.6357C84.5653 11.6357 85.2427 11.8129 85.8195 12.1674C86.4097 12.5088 86.8657 12.988 87.1877 13.605C87.5096 14.209 87.6706 14.9179 87.6706 15.7319V21.5613H85.1353V15.9289C85.1353 15.1937 84.9476 14.6422 84.572 14.2746C84.2098 13.907 83.6866 13.7232 83.0025 13.7232C82.2245 13.7232 81.6209 13.9792 81.1917 14.4912C80.7624 14.9902 80.5478 15.6926 80.5478 16.5985V21.5613H78.0126Z" fill="white"/>
<path d="M92.3494 21.5613C91.6921 21.5613 91.1556 21.3643 90.7398 20.9705C90.3373 20.5635 90.1361 20.0252 90.1361 19.3556V13.8414H87.6412V11.7932H90.1361V8.76039H92.6714V11.7932H95.4078V13.8414H92.6714V18.9223C92.6714 19.3162 92.8592 19.5131 93.2347 19.5131H95.1663V21.5613H92.3494Z" fill="white"/>
<path d="M100.287 21.837C99.294 21.837 98.4154 21.6335 97.6508 21.2265C96.8996 20.8063 96.3094 20.2221 95.8801 19.4737C95.4643 18.7123 95.2564 17.8195 95.2564 16.7954V16.5591C95.2564 15.535 95.4643 14.6488 95.8801 13.9004C96.296 13.139 96.8795 12.5547 97.6306 12.1477C98.3818 11.7276 99.2537 11.5175 100.246 11.5175C101.226 11.5175 102.077 11.7341 102.802 12.1674C103.526 12.5875 104.089 13.1783 104.492 13.9398C104.894 14.6882 105.095 15.5613 105.095 16.5591V17.4059H97.8319C97.8587 18.0755 98.1135 18.6204 98.5964 19.0405C99.0793 19.4606 99.6696 19.6707 100.367 19.6707C101.078 19.6707 101.601 19.5197 101.936 19.2177C102.272 18.9158 102.527 18.581 102.701 18.2133L104.774 19.2768C104.586 19.6182 104.311 19.9923 103.949 20.3993C103.6 20.7932 103.13 21.1346 102.54 21.4234C101.95 21.6991 101.199 21.837 100.287 21.837ZM97.852 15.5547H102.52C102.466 14.9902 102.232 14.5372 101.816 14.1958C101.413 13.8545 100.884 13.6838 100.226 13.6838C99.5421 13.6838 98.9989 13.8545 98.5964 14.1958C98.194 14.5372 97.9459 14.9902 97.852 15.5547Z" fill="white"/>
<path d="M105.742 21.5613V11.7932H108.237V12.8961H108.599C108.747 12.5022 108.988 12.2133 109.324 12.0295C109.673 11.8457 110.075 11.7538 110.531 11.7538H111.738V13.9595H110.491C109.847 13.9595 109.317 14.1302 108.901 14.4716C108.485 14.7998 108.278 15.3118 108.278 16.0077V21.5613H105.742Z" fill="white"/>
<path d="M112.089 21.837C111.552 21.837 111.096 21.6663 110.72 21.3249C110.358 20.9705 110.177 20.5175 110.177 19.9661C110.177 19.4147 110.358 18.9683 110.72 18.6269C111.096 18.2724 111.552 18.0952 112.089 18.0952C112.638 18.0952 113.095 18.2724 113.457 18.6269C113.819 18.9683 114 19.4147 114 19.9661C114 20.5175 113.819 20.9705 113.457 21.3249C113.095 21.6663 112.638 21.837 112.089 21.837Z" fill="white"/>
</g>
<rect width="30" height="30" rx="7.5" fill="#533ABB"/>
<rect x="0.0520833" y="0.0520833" width="29.8958" height="29.8958" rx="7.44792" stroke="white" stroke-opacity="0.16" stroke-width="0.104167"/>
<path fill-rule="evenodd" clip-rule="evenodd" d="M14.0617 10C13.6916 8.56231 12.3865 7.5 10.8333 7.5C8.99238 7.5 7.5 8.99238 7.5 10.8333C7.5 12.6743 8.99238 14.1667 10.8333 14.1667C12.3865 14.1667 13.6916 13.1044 14.0617 11.6667H16.9444V14.4444H18.6111V11.6667H19.7222V14.4444H21.3889V11.6667H22.5V10H14.0617ZM12.5 10.8333C12.5 11.7538 11.7538 12.5 10.8333 12.5C9.91286 12.5 9.16667 11.7538 9.16667 10.8333C9.16667 9.91286 9.91286 9.16667 10.8333 9.16667C11.7538 9.16667 12.5 9.91286 12.5 10.8333Z" fill="white"/>
<path fill-rule="evenodd" clip-rule="evenodd" d="M15.9383 20C16.3084 21.4377 17.6135 22.5 19.1667 22.5C21.0076 22.5 22.5 21.0076 22.5 19.1667C22.5 17.3257 21.0076 15.8333 19.1667 15.8333C17.6135 15.8333 16.3084 16.8956 15.9383 18.3333H13.0556V15.5556H11.3889L11.3889 18.3333H10.2778L10.2778 15.5556H8.61111L8.61111 18.3333H7.5L7.5 20H15.9383ZM17.5 19.1667C17.5 18.2462 18.2462 17.5 19.1667 17.5C20.0871 17.5 20.8333 18.2462 20.8333 19.1667C20.8333 20.0871 20.0871 20.8333 19.1667 20.8333C18.2462 20.8333 17.5 20.0871 17.5 19.1667Z" fill="white"/>
</svg>
