<svg width="163" height="48" viewBox="0 0 163 48" fill="none" xmlns="http://www.w3.org/2000/svg">
<rect width="48" height="48" rx="13.5" fill="url(#paint0_linear_137_303)"/>
<path fill-rule="evenodd" clip-rule="evenodd" d="M22.4986 16C21.9066 13.6997 19.8185 12 17.3333 12C14.3878 12 12 14.3878 12 17.3333C12 20.2789 14.3878 22.6667 17.3333 22.6667C19.8185 22.6667 21.9066 20.967 22.4986 18.6667H27.1111V23.1111H29.7778V18.6667H31.5556V23.1111H34.2222V18.6667H36V16H22.4986ZM20 17.3333C20 18.8061 18.8061 20 17.3333 20C15.8606 20 14.6667 18.8061 14.6667 17.3333C14.6667 15.8606 15.8606 14.6667 17.3333 14.6667C18.8061 14.6667 20 15.8606 20 17.3333Z" fill="white"/>
<path fill-rule="evenodd" clip-rule="evenodd" d="M25.5014 32C26.0934 34.3003 28.1815 36 30.6667 36C33.6122 36 36 33.6122 36 30.6667C36 27.7211 33.6122 25.3333 30.6667 25.3333C28.1815 25.3333 26.0934 27.033 25.5014 29.3333H20.8889V24.8889H18.2222L18.2222 29.3333H16.4444L16.4444 24.8889H13.7778L13.7778 29.3333H12L12 32H25.5014ZM28 30.6667C28 29.1939 29.1939 28 30.6667 28C32.1394 28 33.3333 29.1939 33.3333 30.6667C33.3333 32.1394 32.1394 33.3333 30.6667 33.3333C29.1939 33.3333 28 32.1394 28 30.6667Z" fill="white"/>
<path d="M64 31.8182V14.3636H74.5493V17.6606H67.2607V21.4424H73.1108V24.7394H67.2607V31.8182H64Z" fill="white"/>
<path d="M75.7546 31.8182V18.7273H78.6317V21.9273L78.32 21.5152C78.4879 21.0626 78.7116 20.6505 78.9913 20.2788C79.2711 19.9071 79.6147 19.6 80.0223 19.3576C80.334 19.1636 80.6736 19.0141 81.0413 18.9091C81.4089 18.796 81.7885 18.7273 82.1801 18.703C82.5717 18.6707 82.9633 18.6788 83.3549 18.7273V21.8061C82.9953 21.6929 82.5757 21.6566 82.0962 21.697C81.6247 21.7293 81.1971 21.8384 80.8135 22.0242C80.4299 22.202 80.1062 22.4404 79.8425 22.7394C79.5787 23.0303 79.3789 23.3778 79.2431 23.7818C79.1072 24.1778 79.0393 24.6263 79.0393 25.1273V31.8182H75.7546Z" fill="white"/>
<path d="M90.46 32.1818C89.1333 32.1818 87.9625 31.8949 86.9475 31.3212C85.9405 30.7394 85.1493 29.9434 84.5739 28.9333C84.0065 27.9152 83.7228 26.7515 83.7228 25.4424C83.7228 24.0121 84.0025 22.7677 84.5619 21.7091C85.1214 20.6505 85.8926 19.8303 86.8756 19.2485C87.8586 18.6586 88.9894 18.3636 90.2681 18.3636C91.6268 18.3636 92.7816 18.6869 93.7326 19.3333C94.6837 19.9798 95.3869 20.8889 95.8425 22.0606C96.298 23.2323 96.4579 24.6101 96.322 26.1939H93.0973V24.9818C93.0973 23.6485 92.8855 22.6909 92.4619 22.1091C92.0463 21.5192 91.363 21.2242 90.412 21.2242C89.3011 21.2242 88.482 21.5677 87.9545 22.2545C87.435 22.9333 87.1753 23.9394 87.1753 25.2727C87.1753 26.4929 87.435 27.4384 87.9545 28.1091C88.482 28.7717 89.2532 29.103 90.2681 29.103C90.9075 29.103 91.4549 28.9616 91.9105 28.6788C92.366 28.396 92.7137 27.9879 92.9534 27.4545L96.2141 28.4C95.7266 29.596 94.9554 30.5253 93.9005 31.1879C92.8535 31.8505 91.7067 32.1818 90.46 32.1818ZM86.1683 26.1939V23.7455H94.7516V26.1939H86.1683Z" fill="white"/>
<path d="M98.3095 16.9091V14H101.57V16.9091H98.3095ZM98.3095 31.8182V18.7273H101.57V31.8182H98.3095Z" fill="white"/>
<path d="M109.743 38C109.008 38 108.309 37.8788 107.646 37.6364C106.982 37.402 106.387 37.0707 105.859 36.6424C105.34 36.2222 104.916 35.7293 104.589 35.1636L107.61 33.6848C107.817 34.0727 108.113 34.3677 108.497 34.5697C108.888 34.7717 109.312 34.8727 109.767 34.8727C110.255 34.8727 110.715 34.7879 111.146 34.6182C111.578 34.4566 111.921 34.2101 112.177 33.8788C112.441 33.5556 112.565 33.1515 112.549 32.6667V28.8606H112.956V18.7273H115.809V32.7152C115.809 33.0384 115.793 33.3414 115.761 33.6242C115.737 33.9152 115.689 34.202 115.618 34.4848C115.41 35.2848 115.022 35.9434 114.455 36.4606C113.895 36.9778 113.208 37.3616 112.393 37.6121C111.578 37.8707 110.695 38 109.743 38ZM109.456 32.1818C108.265 32.1818 107.222 31.8788 106.327 31.2727C105.432 30.6667 104.733 29.8424 104.229 28.8C103.734 27.7576 103.486 26.5818 103.486 25.2727C103.486 23.9394 103.738 22.7556 104.241 21.7212C104.753 20.6788 105.468 19.8586 106.387 19.2606C107.306 18.6626 108.385 18.3636 109.624 18.3636C110.854 18.3636 111.889 18.6667 112.728 19.2727C113.568 19.8788 114.203 20.703 114.635 21.7455C115.066 22.7879 115.282 23.9636 115.282 25.2727C115.282 26.5818 115.062 27.7576 114.623 28.8C114.191 29.8424 113.544 30.6667 112.681 31.2727C111.817 31.8788 110.742 32.1818 109.456 32.1818ZM109.983 29.2485C110.711 29.2485 111.29 29.0828 111.721 28.7515C112.161 28.4202 112.477 27.9556 112.669 27.3576C112.86 26.7596 112.956 26.0646 112.956 25.2727C112.956 24.4808 112.86 23.7859 112.669 23.1879C112.477 22.5899 112.169 22.1253 111.745 21.7939C111.33 21.4626 110.782 21.297 110.103 21.297C109.376 21.297 108.776 21.4788 108.305 21.8424C107.841 22.198 107.498 22.6788 107.274 23.2848C107.05 23.8828 106.938 24.5455 106.938 25.2727C106.938 26.0081 107.046 26.6788 107.262 27.2848C107.478 27.8828 107.809 28.3596 108.257 28.7152C108.705 29.0707 109.28 29.2485 109.983 29.2485Z" fill="white"/>
<path d="M127.031 31.8182V25.6364C127.031 25.3374 127.015 24.9576 126.983 24.497C126.951 24.0283 126.851 23.5596 126.683 23.0909C126.515 22.6222 126.239 22.2303 125.856 21.9152C125.48 21.6 124.945 21.4424 124.249 21.4424C123.97 21.4424 123.67 21.4869 123.35 21.5758C123.031 21.6646 122.731 21.8384 122.451 22.097C122.171 22.3475 121.94 22.7192 121.756 23.2121C121.58 23.7051 121.492 24.3596 121.492 25.1758L119.622 24.2788C119.622 23.2444 119.83 22.2747 120.245 21.3697C120.661 20.4646 121.284 19.7333 122.115 19.1758C122.955 18.6182 124.01 18.3394 125.28 18.3394C126.295 18.3394 127.122 18.5131 127.762 18.8606C128.401 19.2081 128.897 19.6485 129.248 20.1818C129.608 20.7152 129.864 21.2727 130.015 21.8545C130.167 22.4283 130.259 22.9535 130.291 23.4303C130.323 23.9071 130.339 24.2545 130.339 24.4727V31.8182H127.031ZM118.183 31.8182V14.3636H121.085V23.3333H121.492V31.8182H118.183Z" fill="white"/>
<path d="M140.259 31.8182C139.364 31.9879 138.485 32.0606 137.622 32.0364C136.766 32.0202 135.999 31.8707 135.32 31.5879C134.649 31.297 134.137 30.8323 133.785 30.1939C133.466 29.596 133.298 28.9899 133.282 28.3758C133.266 27.7535 133.258 27.0505 133.258 26.2667V15.0909H136.519V26.0727C136.519 26.5818 136.523 27.0424 136.531 27.4545C136.547 27.8586 136.631 28.1818 136.782 28.4242C137.07 28.8848 137.53 29.1354 138.161 29.1758C138.792 29.2162 139.492 29.1838 140.259 29.0788V31.8182ZM131.052 21.2727V18.7273H140.259V21.2727H131.052Z" fill="white"/>
<path d="M147.477 32.1818C146.15 32.1818 144.98 31.8949 143.965 31.3212C142.958 30.7394 142.166 29.9434 141.591 28.9333C141.024 27.9152 140.74 26.7515 140.74 25.4424C140.74 24.0121 141.02 22.7677 141.579 21.7091C142.138 20.6505 142.91 19.8303 143.893 19.2485C144.876 18.6586 146.007 18.3636 147.285 18.3636C148.644 18.3636 149.799 18.6869 150.75 19.3333C151.701 19.9798 152.404 20.8889 152.86 22.0606C153.315 23.2323 153.475 24.6101 153.339 26.1939H150.114V24.9818C150.114 23.6485 149.903 22.6909 149.479 22.1091C149.063 21.5192 148.38 21.2242 147.429 21.2242C146.318 21.2242 145.499 21.5677 144.972 22.2545C144.452 22.9333 144.192 23.9394 144.192 25.2727C144.192 26.4929 144.452 27.4384 144.972 28.1091C145.499 28.7717 146.27 29.103 147.285 29.103C147.925 29.103 148.472 28.9616 148.928 28.6788C149.383 28.396 149.731 27.9879 149.971 27.4545L153.231 28.4C152.744 29.596 151.973 30.5253 150.918 31.1879C149.871 31.8505 148.724 32.1818 147.477 32.1818ZM143.185 26.1939V23.7455H151.769V26.1939H143.185Z" fill="white"/>
<path d="M155.087 31.8182V18.7273H157.964V21.9273L157.652 21.5152C157.82 21.0626 158.044 20.6505 158.324 20.2788C158.603 19.9071 158.947 19.6 159.355 19.3576C159.666 19.1636 160.006 19.0141 160.374 18.9091C160.741 18.796 161.121 18.7273 161.512 18.703C161.904 18.6707 162.296 18.6788 162.687 18.7273V21.8061C162.328 21.6929 161.908 21.6566 161.428 21.697C160.957 21.7293 160.529 21.8384 160.146 22.0242C159.762 22.202 159.438 22.4404 159.175 22.7394C158.911 23.0303 158.711 23.3778 158.575 23.7818C158.439 24.1778 158.372 24.6263 158.372 25.1273V31.8182H155.087Z" fill="white"/>
<defs>
<linearGradient id="paint0_linear_137_303" x1="48" y1="0" x2="1.14441e-05" y2="48" gradientUnits="userSpaceOnUse">
<stop stop-color="#CDADFF"/>
<stop offset="1" stop-color="#6432F1"/>
</linearGradient>
</defs>
</svg>
