<svg width="189" height="40" viewBox="0 0 189 40" fill="none" xmlns="http://www.w3.org/2000/svg">
<path d="M63.2064 9.80469H62.2088C61.2349 9.80469 60.8073 10.0897 60.166 11.1586L54.8453 19.7809L52.6363 11.2536C52.375 10.2322 52.09 9.82844 50.9736 9.82844H50.1423C49.0496 9.82844 48.3608 10.4698 48.147 11.6099L45.6767 25.4816C45.4867 26.5268 45.9617 27.0731 46.8643 27.0731H47.2444C48.1945 27.0731 48.6221 26.598 48.7883 25.5767L50.7836 14.3653L52.7076 21.8712C52.8738 22.6313 53.0164 23.1301 54.4653 23.1301C55.6767 23.1301 55.9617 22.7025 56.3893 22.0137L61.0924 14.294L59.0971 25.5054C58.9071 26.5743 59.3822 27.0969 60.261 27.0969H60.6648C61.6149 27.0969 62.0425 26.598 62.2088 25.6004L64.6553 11.6337C64.8691 10.5173 64.3228 9.80469 63.2064 9.80469Z" fill="white"/>
<path d="M78.0522 19.7339C77.9335 16.3609 75.6532 13.8906 71.8052 13.8906C67.4109 13.8906 64.7268 17.4773 64.8456 21.3966C64.9881 24.9833 67.4584 27.2873 71.0926 27.2873C75.6057 27.2635 78.171 23.6531 78.0522 19.7339ZM71.1164 24.817C69.0499 24.817 67.7434 23.3206 67.6722 21.2778C67.5772 18.6412 69.3111 16.3134 71.7815 16.3134C73.6817 16.3134 75.1781 17.8099 75.2494 19.8764C75.3206 22.6555 73.5867 24.817 71.1164 24.817Z" fill="white"/>
<path d="M87.8618 13.8906C86.0328 13.8906 84.5839 14.7932 83.61 16.3134C83.7051 14.5795 82.7549 14.0806 81.7811 14.0806C81.3298 14.0806 80.9735 14.1994 80.9497 14.2469L78.9545 25.5296C78.7644 26.6935 79.4058 27.026 80.2609 27.026H80.6172C81.5435 27.026 81.9236 26.646 82.1136 25.5296L83.3013 18.76C84.1564 17.2635 85.1065 16.551 86.5792 16.551C88.0518 16.551 88.9307 17.4298 88.9545 18.8787C88.9782 19.2588 88.8832 19.7339 88.8119 20.3039L87.8856 25.5296C87.6956 26.6935 88.3606 27.026 89.192 27.026H89.5483C90.4747 27.026 90.8547 26.646 91.0447 25.5296L92.0661 19.7576C92.1849 19.1163 92.2561 18.5462 92.2324 18.0236C92.1611 15.6008 90.5459 13.8906 87.8618 13.8906Z" fill="white"/>
<path d="M144.061 13.8906C142.565 13.8906 141.449 14.7457 140.688 16.3134C140.807 14.5795 139.857 14.0806 138.883 14.0806C138.408 14.0806 138.076 14.1994 138.052 14.2469L136.033 25.5296C135.843 26.6935 136.603 27.026 137.458 27.026H137.814C138.622 27.026 139.002 26.646 139.216 25.5296L139.881 21.7529C140.38 18.8075 141.472 16.7647 143.23 16.7647C144.085 16.7647 144.631 17.121 144.988 17.5248C145.035 17.5723 146.365 17.0498 146.318 15.4821C146.247 14.5082 145.273 13.8906 144.061 13.8906Z" fill="white"/>
<path d="M159.406 14.081C158.171 14.081 157.482 14.6748 157.078 16.2425C156.294 14.7698 154.679 13.8672 152.803 13.8672C148.812 13.8672 146.033 17.4301 146.033 21.4681C146.033 24.7936 148.076 27.2639 151.306 27.2639C153.278 27.2639 154.798 26.4563 155.772 24.8173C155.629 26.5275 155.962 27.0501 157.197 27.0501C158.29 27.0501 158.646 26.6463 158.765 25.4349C158.907 23.2021 159.667 19.5679 160.546 14.461C160.546 14.366 160.047 14.081 159.406 14.081ZM151.995 24.8173C150.047 24.8173 148.931 23.5822 148.931 21.3969C148.931 18.8316 150.428 16.2662 153.207 16.2662C155.463 16.2662 156.413 17.9289 156.413 19.7579C156.413 22.062 154.846 24.8173 151.995 24.8173Z" fill="white"/>
<path d="M178.361 13.8906C176.175 13.8906 174.727 15.007 173.705 16.646C173.206 14.912 171.71 13.8906 169.81 13.8906C168.147 13.8906 166.698 14.6745 165.7 16.1709C165.748 14.5795 164.822 14.1044 163.871 14.1044C163.396 14.1044 163.064 14.2232 163.04 14.2707L161.045 25.5533C160.855 26.7172 161.496 27.0498 162.351 27.0498H162.708C163.515 27.0498 164.014 26.7172 164.204 25.5533L165.439 18.5462C166.342 17.1448 167.197 16.551 168.527 16.551C169.833 16.551 170.641 17.5248 170.641 18.9975C170.641 19.235 170.617 19.4963 170.57 19.7814L169.572 25.5533C169.382 26.7172 170.047 27.0498 170.879 27.0498H171.211C172.019 27.0498 172.541 26.6935 172.731 25.5533L173.966 18.5462C174.869 17.1448 175.724 16.551 177.054 16.551C178.313 16.551 179.24 17.3111 179.24 18.8787C179.24 19.2588 179.168 19.7339 179.073 20.3039L178.147 25.5296C177.957 26.6935 178.598 27.026 179.453 27.026H179.81C180.736 27.026 181.116 26.646 181.306 25.5296L182.327 19.7576C182.446 19.1163 182.494 18.5462 182.494 18.0236C182.517 15.4821 180.807 13.8906 178.361 13.8906Z" fill="white"/>
<path d="M106.651 19.5445C106.651 17.7867 106.294 16.6228 105.51 15.6015C104.655 14.5088 103.064 13.8438 101.211 13.8438C95.6054 13.8438 93.5864 17.9768 93.5864 21.5635C93.5864 24.9839 96.0567 27.2642 99.8572 27.2642C103.658 27.2642 105.795 25.5777 105.795 24.2238C105.795 23.3212 105.154 23.0124 104.418 22.9411C103.42 24.2238 102.042 24.8414 100.166 24.8414C98.5033 24.8414 96.5318 24.2 96.3893 21.2309H105.012C105.938 21.2547 106.651 20.7321 106.651 19.5445ZM103.871 19.1407H96.6743C97.3631 17.3117 98.9546 16.1715 100.974 16.1715C101.995 16.1715 102.779 16.4566 103.301 17.0266C103.753 17.5492 103.919 18.2618 103.871 19.1407Z" fill="white"/>
<path d="M133.42 17.8126H128.29C127.672 17.8126 127.387 17.9551 127.197 18.1451C126.888 18.4777 126.722 19.2378 126.722 19.5703C126.746 20.0929 127.197 20.4017 128.028 20.4017H131.663C131.164 22.9432 129.549 24.701 126.769 24.701C123.848 24.701 121.9 22.8482 121.781 19.6891C121.639 15.7223 124.275 12.4444 128.005 12.4444C130.19 12.4444 131.9 13.6083 132.589 15.1523C132.684 15.271 134.703 15.271 134.632 13.5371C134.608 12.9195 134.252 12.1831 133.587 11.5656C132.518 10.4967 130.499 9.57031 127.815 9.57031C124.062 9.57031 121.092 11.6368 119.549 14.6297C119.549 14.6059 119.525 14.6059 119.525 14.6059C119.216 14.2021 118.717 14.0121 118.218 14.0121C117.387 14.0121 116.841 14.2734 116.033 15.6986L112.043 22.7057L110.546 15.7223C110.261 14.4159 109.786 14.0121 108.955 14.0121C107.981 14.0121 107.197 14.7247 107.221 14.891L110.071 26.1736L107.126 31.0192C106.817 31.5418 106.793 32.2306 107.91 32.2306H108.527C109.691 32.2306 110.071 31.5181 110.641 30.5442L118.67 16.9575C118.432 17.9076 118.313 18.929 118.361 19.9741C118.503 24.5347 121.591 27.29 126.104 27.29C128.242 27.29 129.952 26.4824 130.902 25.2473C130.831 26.5774 131.544 27.1 132.494 27.1C133.016 27.1 133.396 26.9337 133.396 26.8387L134.703 19.5228C134.917 18.3827 134.489 17.8126 133.42 17.8126Z" fill="white"/>
<path d="M185.89 25.6465C185.985 25.8127 186.057 25.884 186.175 25.884C186.175 25.884 186.199 26.074 185.962 26.074C185.819 26.074 185.724 26.0027 185.582 25.7415L185.32 25.2664H185.083L184.964 25.9315C184.94 26.0265 184.893 26.074 184.798 26.074H184.75C184.655 26.074 184.608 26.0265 184.632 25.9077L184.964 24.1975C184.988 24.0788 185.059 24.0312 185.178 24.0312H185.677C186.128 24.0312 186.389 24.2213 186.389 24.5538C186.389 24.9576 186.128 25.2189 185.677 25.2427L185.89 25.6465ZM185.582 25.0051C185.89 25.0051 186.057 24.8389 186.033 24.5776C186.033 24.3875 185.89 24.2688 185.629 24.2688H185.273L185.13 24.9814H185.582V25.0051Z" fill="white"/>
<path d="M185.51 23.4882C186.437 23.4882 187.173 24.2483 187.173 25.1509C187.173 26.0772 186.413 26.8136 185.51 26.8136C184.584 26.8136 183.848 26.0535 183.848 25.1509C183.824 24.2483 184.584 23.4882 185.51 23.4882ZM185.51 23.2031C184.441 23.2031 183.562 24.082 183.562 25.1509C183.562 26.2198 184.441 27.0986 185.51 27.0986C186.579 27.0986 187.458 26.2198 187.458 25.1509C187.458 24.082 186.579 23.2031 185.51 23.2031Z" fill="white"/>
<path d="M20.1662 38.8363C30.5691 38.8363 39.0023 30.4031 39.0023 20.0002C39.0023 9.59727 30.5691 1.16406 20.1662 1.16406C9.76329 1.16406 1.33008 9.59727 1.33008 20.0002C1.33008 30.4031 9.76329 38.8363 20.1662 38.8363Z" fill="white"/>
<path d="M39.0023 20.0002C39.0023 30.404 30.57 38.8363 20.1662 38.8363C9.76238 38.8363 1.33008 30.404 1.33008 20.0002C1.33008 17.1261 1.97141 14.4182 3.11155 11.9954C2.35146 13.9194 1.99516 15.8434 1.99516 17.6249C1.99516 26.1522 8.88352 27.3873 11.8051 27.3636C16.2707 27.3161 21.4726 25.1308 25.8669 21.0928C25.8669 21.0928 25.2968 24.2757 25.1306 25.2496C24.9643 26.1997 25.5819 27.031 26.532 27.031H26.912C27.8859 27.031 28.5985 26.2234 28.7648 25.2496L30.3562 16.366C30.5462 15.3683 29.9049 14.5845 28.9073 14.5845H20.0237C19.026 14.5845 18.1234 15.1071 17.9572 16.1047C17.9572 16.1522 17.8859 16.4372 17.8859 16.5085C17.7434 17.4586 18.4085 18.1712 19.3586 18.1712H23.9904C23.9192 18.2424 23.8479 18.3137 23.7766 18.385C20.57 21.4016 16.6032 23.0643 13.3253 23.0643C10.0712 23.0643 6.41321 20.9978 6.41321 16.366C6.41321 6.74601 15.4393 1.16406 20.1662 1.16406C30.5462 1.16406 39.0023 9.59637 39.0023 20.0002Z" fill="#DF2127"/>
</svg>
