<svg width="20" height="20" viewBox="0 0 20 20" fill="none" xmlns="http://www.w3.org/2000/svg">
<path d="M16 0.504883C15.1027 0.504883 14.2054 0.845069 13.5254 1.52539L2.45804 12.5918C2.24805 12.8018 2.09426 13.0629 2.01272 13.3496L0.529324 18.5439C0.492741 18.6725 0.491161 18.8084 0.524747 18.9378C0.558334 19.0671 0.625868 19.1852 0.720363 19.2797C0.814859 19.3742 0.932884 19.4417 1.06223 19.4753C1.19158 19.5089 1.32755 19.5073 1.45608 19.4707L6.65139 17.9873C6.65172 17.987 6.65205 17.9867 6.65237 17.9863C6.93713 17.9045 7.19763 17.7526 7.40823 17.542L18.4746 6.47461C19.8352 5.11405 19.8352 2.88595 18.4746 1.52539C17.7946 0.845069 16.8974 0.504883 16 0.504883ZM16 1.99609C16.5104 1.99609 17.0201 2.19276 17.4131 2.58594C17.4134 2.58594 17.4138 2.58594 17.4141 2.58594C18.2015 3.37337 18.2015 4.62663 17.4141 5.41406L16.4444 6.38379L13.6162 3.55566L14.586 2.58594C14.979 2.19276 15.4896 1.99609 16 1.99609ZM12.5557 4.61621L15.3838 7.44434L6.34671 16.4814C6.31739 16.5106 6.28026 16.5329 6.23831 16.5449L2.34182 17.6582L3.45511 13.7607C3.45511 13.7604 3.45511 13.7601 3.45511 13.7598C3.46657 13.7195 3.48757 13.6834 3.51858 13.6523L12.5557 4.61621Z" fill="#391EDA"/>
</svg>
