<?xml version="1.0" encoding="utf-8"?>
<!-- Generator: Adobe Illustrator 25.0.0, SVG Export Plug-In . SVG Version: 6.00 Build 0)  -->
<svg version="1.1" id="Layer_2" xmlns="http://www.w3.org/2000/svg" xmlns:xlink="http://www.w3.org/1999/xlink" x="0px" y="0px"
	 viewBox="0 0 500 500" enable-background="new 0 0 500 500" xml:space="preserve">
<linearGradient id="SVGID_1_" gradientUnits="userSpaceOnUse" x1="252.3957" y1="-1.6525" x2="252.3957" y2="502.11">
	<stop  offset="0" style="stop-color:#A7A7F4"/>
	<stop  offset="1" style="stop-color:#6868F1"/>
</linearGradient>
<path fill="url(#SVGID_1_)" d="M392.219,360.091c-8.637-7.974-18.549-15.945-29.49-23.767
	c-12.777-42.119-47.077-74.934-90.034-85.757v-58.371h52.939v-61.554h-52.939v-23.398h84.175V45.69h-84.175V2.398h-61.554v248.169
	c-7.424,1.871-14.587,4.405-21.427,7.525c-12.217-2.824-23.933-4.886-34.903-6.087c-51.296-5.61-69.146,8.769-75.088,21.823
	c-0.312,0.685-0.599,1.403-0.869,2.142c-0.031,0.084-0.065,0.168-0.094,0.252c-0.241,0.678-0.457,1.382-0.655,2.106
	c-0.032,0.116-0.063,0.232-0.093,0.348c-0.191,0.73-0.36,1.481-0.501,2.258c-0.001,0.004-0.001,0.008-0.002,0.013
	c-2.015,11.137,1.433,27.04,19.989,48.431c5.666,6.57,12.477,13.327,20.384,20.206c-1.41,7.532-2.154,15.297-2.154,23.236
	c0,69.583,56.609,126.192,126.192,126.192c39.795,0,75.338-18.515,98.485-47.375c11.198,1.671,21.465,2.519,30.688,2.519
	c8.437,0,16.012-0.699,22.682-2.077c0.009-0.002,0.019-0.004,0.028-0.006c0.75-0.155,1.489-0.319,2.217-0.491
	c0.043-0.01,0.086-0.02,0.129-0.03c0.713-0.171,1.416-0.349,2.107-0.536c0.023-0.006,0.046-0.012,0.069-0.018
	c11.587-3.154,19.988-8.66,24.856-16.451c0.102-0.162,0.205-0.324,0.302-0.486c0.114-0.19,0.224-0.383,0.334-0.576
	c0.14-0.246,0.276-0.491,0.407-0.737c0.08-0.15,0.161-0.3,0.238-0.451c0.212-0.414,0.416-0.828,0.604-1.241h0
	C431.007,417.999,430.132,395.092,392.219,360.091z M237.54,400.497c-1.945-0.858-3.891-1.727-5.836-2.613
	c-1.629-0.742-3.25-1.492-4.868-2.248c-0.366-0.171-0.731-0.343-1.096-0.515c-1.444-0.679-2.885-1.362-4.319-2.051
	c-0.142-0.068-0.284-0.136-0.425-0.204c-15.296-7.373-29.987-15.354-43.609-23.671c1.886-33.966,30.102-61.028,64.531-61.028
	c35.645,0,64.651,29.006,64.651,64.651c0,18.242-7.609,34.73-19.805,46.493c-15.765-5.073-31.981-11.244-48.243-18.382
	C238.194,400.785,237.868,400.642,237.54,400.497z M133.833,269.749c9.153,0,19.797,0.9,31.709,2.817
	c-18.887,14.384-33.608,33.952-42.002,56.579c-0.419-0.397-0.844-0.796-1.253-1.19c-0.186-0.179-0.375-0.359-0.559-0.538
	c-0.842-0.817-1.663-1.628-2.46-2.432c-0.13-0.131-0.255-0.261-0.384-0.391c-0.682-0.692-1.347-1.378-1.997-2.059
	c-0.178-0.187-0.357-0.373-0.532-0.56c-1.536-1.626-2.983-3.222-4.335-4.784c-0.088-0.101-0.174-0.202-0.261-0.303
	c-12.945-15.039-17.439-26.988-15.269-34.036c0.008-0.026,0.015-0.054,0.023-0.08c0.122-0.384,0.262-0.755,0.424-1.109l0,0
	C100.33,274.204,113.381,269.749,133.833,269.749z M180.527,393.013c10.249,5.827,20.991,11.456,32.107,16.814
	c0.252,0.121,0.504,0.242,0.756,0.363c1.399,0.672,2.805,1.34,4.216,2.003c0.411,0.193,0.822,0.387,1.234,0.58
	c1.669,0.78,3.344,1.555,5.028,2.322c2.534,1.154,5.069,2.279,7.604,3.388c0.795,0.348,1.588,0.687,2.383,1.031
	c1.78,0.769,3.559,1.528,5.337,2.275c0.875,0.367,1.749,0.733,2.622,1.095c1.844,0.763,3.685,1.511,5.525,2.249
	c0.714,0.286,1.428,0.579,2.141,0.862c2.461,0.975,4.918,1.929,7.369,2.859c0.75,0.284,1.495,0.556,2.244,0.836
	c1.732,0.648,3.461,1.288,5.187,1.912c0.825,0.299,1.649,0.595,2.473,0.888c-7.651,3.195-16.039,4.967-24.835,4.967
	C213.325,437.456,189.028,418.793,180.527,393.013z M407.348,424.177c-0.01,0.017-0.023,0.034-0.033,0.052
	c-2.674,4.421-9.37,7.984-20.092,9.745c-0.141,0.023-0.279,0.047-0.422,0.069c-0.31,0.049-0.636,0.092-0.953,0.138
	c-8.929,1.261-20.257,1.303-33.62-0.117c10.118-18.148,15.894-39.033,15.894-61.245c0-2.978-0.109-5.93-0.313-8.855
	c31.283,25.617,45.059,48.237,40.043,59.254h0C407.706,423.541,407.537,423.861,407.348,424.177z"/>
</svg>
